<svg width="60" height="60" viewBox="0 0 60 60" fill="none" xmlns="http://www.w3.org/2000/svg">
<g clip-path="url(#clip0)">
<path d="M30 0C13.4309 0 0 13.4309 0 30C0 46.5691 13.4309 60.0163 30 60.0163C46.5691 60.0163 60 46.5854 60 30.0163C60 13.4472 46.5691 0 30 0ZM29.898 49.7383C30.664 49.7383 31.285 50.3565 31.285 51.1191C31.285 51.8818 30.664 52.5 29.898 52.5C29.132 52.5 28.511 51.8818 28.511 51.1191C28.511 50.3565 29.132 49.7383 29.898 49.7383ZM41.6266 48.8854C42.2236 48.8854 42.7076 49.3672 42.7076 49.9616C42.7076 50.556 42.2236 51.0379 41.6266 51.0379C41.0295 51.0379 40.5455 50.556 40.5455 49.9616C40.5455 49.3672 41.0295 48.8854 41.6266 48.8854ZM18.5366 48.8854C19.1337 48.8854 19.6177 49.3672 19.6177 49.9616C19.6177 50.556 19.1337 51.0379 18.5366 51.0379C17.9396 51.0379 17.4555 50.556 17.4555 49.9616C17.4555 49.3672 17.9396 48.8854 18.5366 48.8854ZM38.465 43.0776C39.4112 43.0776 40.1783 43.8413 40.1783 44.7834C40.1783 45.7255 39.4112 46.4892 38.465 46.4892C37.5187 46.4892 36.7516 45.7255 36.7516 44.7834C36.7516 43.8413 37.5187 43.0776 38.465 43.0776ZM21.3311 43.0776C22.2773 43.0776 23.0445 43.8413 23.0445 44.7834C23.0445 45.7255 22.2773 46.4892 21.3311 46.4892C20.3848 46.4892 19.6177 45.7255 19.6177 44.7834C19.6177 43.8413 20.3848 43.0776 21.3311 43.0776ZM30.102 41.2094C31.206 41.2094 32.1009 42.1004 32.1009 43.1995C32.1009 44.2985 31.206 45.1895 30.102 45.1895C28.998 45.1895 28.103 44.2985 28.103 43.1995C28.103 42.1004 28.998 41.2094 30.102 41.2094ZM48.2558 39.3005C49.0218 39.3005 49.6428 39.9188 49.6428 40.6814C49.6428 41.444 49.0218 42.0623 48.2558 42.0623C47.4897 42.0623 46.8687 41.444 46.8687 40.6814C46.8687 39.9188 47.4897 39.3005 48.2558 39.3005ZM11.6219 39.0975C12.3879 39.0975 13.0089 39.7157 13.0089 40.4783C13.0089 41.241 12.3879 41.8592 11.6219 41.8592C10.8558 41.8592 10.2348 41.241 10.2348 40.4783C10.2348 39.7157 10.8558 39.0975 11.6219 39.0975ZM26.0633 33.4116C27.9108 33.4116 29.4085 34.9026 29.4085 36.7419C29.4085 38.5812 27.9108 40.0722 26.0633 40.0722C24.2158 40.0722 22.7181 38.5812 22.7181 36.7419C22.7181 34.9026 24.2158 33.4116 26.0633 33.4116ZM33.9775 33.2085C35.825 33.2085 37.3227 34.6995 37.3227 36.5388C37.3227 38.3781 35.825 39.8691 33.9775 39.8691C32.13 39.8691 30.6323 38.3781 30.6323 36.5388C30.6323 34.6995 32.13 33.2085 33.9775 33.2085ZM41.5246 34.5487C42.6286 34.5487 43.5235 35.4397 43.5235 36.5388C43.5235 37.6379 42.6286 38.5289 41.5246 38.5289C40.4206 38.5289 39.5256 37.6379 39.5256 36.5388C39.5256 35.4397 40.4206 34.5487 41.5246 34.5487ZM18.5162 34.5487C19.6202 34.5487 20.5152 35.4397 20.5152 36.5388C20.5152 37.6379 19.6202 38.5289 18.5162 38.5289C17.4122 38.5289 16.5173 37.6379 16.5173 36.5388C16.5173 35.4397 17.4122 34.5487 18.5162 34.5487ZM22.2286 26.5884C24.0761 26.5884 25.5737 28.0795 25.5737 29.9188C25.5737 31.7581 24.0761 33.2491 22.2286 33.2491C20.3811 33.2491 18.8834 31.7581 18.8834 29.9188C18.8834 28.0795 20.3811 26.5884 22.2286 26.5884ZM37.7306 26.5884C39.5781 26.5884 41.0758 28.0795 41.0758 29.9188C41.0758 31.7581 39.5781 33.2491 37.7306 33.2491C35.8832 33.2491 34.3855 31.7581 34.3855 29.9188C34.3855 28.0795 35.8832 26.5884 37.7306 26.5884ZM47.2767 28.4567C48.223 28.4567 48.9901 29.2204 48.9901 30.1625C48.9901 31.1045 48.223 31.8682 47.2767 31.8682C46.3304 31.8682 45.5633 31.1045 45.5633 30.1625C45.5633 29.2204 46.3304 28.4567 47.2767 28.4567ZM13.0089 28.2536C13.9552 28.2536 14.7223 29.0173 14.7223 29.9594C14.7223 30.9015 13.9552 31.6652 13.0089 31.6652C12.0626 31.6652 11.2955 30.9015 11.2955 29.9594C11.2955 29.0173 12.0626 28.2536 13.0089 28.2536ZM6.70607 28.944C7.30312 28.944 7.78713 29.4259 7.78713 30.0203C7.78713 30.6147 7.30312 31.0966 6.70607 31.0966C6.10901 31.0966 5.625 30.6147 5.625 30.0203C5.625 29.4259 6.10901 28.944 6.70607 28.944ZM53.2939 28.8628C53.891 28.8628 54.375 29.3447 54.375 29.9391C54.375 30.5335 53.891 31.0153 53.2939 31.0153C52.6969 31.0153 52.2129 30.5335 52.2129 29.9391C52.2129 29.3447 52.6969 28.8628 53.2939 28.8628ZM33.9775 19.9278C35.825 19.9278 37.3227 21.4188 37.3227 23.2581C37.3227 25.0974 35.825 26.5884 33.9775 26.5884C32.13 26.5884 30.6323 25.0974 30.6323 23.2581C30.6323 21.4188 32.13 19.9278 33.9775 19.9278ZM26.0633 19.7653C27.9108 19.7653 29.4085 21.2564 29.4085 23.0957C29.4085 24.935 27.9108 26.426 26.0633 26.426C24.2158 26.426 22.7181 24.935 22.7181 23.0957C22.7181 21.2564 24.2158 19.7653 26.0633 19.7653ZM18.5162 21.5117C19.6202 21.5117 20.5152 22.4027 20.5152 23.5018C20.5152 24.6009 19.6202 25.4919 18.5162 25.4919C17.4122 25.4919 16.5173 24.6009 16.5173 23.5018C16.5173 22.4027 17.4122 21.5117 18.5162 21.5117ZM41.5246 21.2681C42.6286 21.2681 43.5235 22.159 43.5235 23.2581C43.5235 24.3572 42.6286 25.2482 41.5246 25.2482C40.4206 25.2482 39.5256 24.3572 39.5256 23.2581C39.5256 22.159 40.4206 21.2681 41.5246 21.2681ZM11.7442 18.0596C12.5103 18.0596 13.1313 18.6778 13.1313 19.4404C13.1313 20.2031 12.5103 20.8213 11.7442 20.8213C10.9782 20.8213 10.3572 20.2031 10.3572 19.4404C10.3572 18.6778 10.9782 18.0596 11.7442 18.0596ZM48.2558 18.0596C49.0218 18.0596 49.6428 18.6778 49.6428 19.4404C49.6428 20.2031 49.0218 20.8213 48.2558 20.8213C47.4897 20.8213 46.8687 20.2031 46.8687 19.4404C46.8687 18.6778 47.4897 18.0596 48.2558 18.0596ZM29.898 14.8105C31.002 14.8105 31.897 15.7015 31.897 16.8005C31.897 17.8996 31.002 18.7906 29.898 18.7906C28.794 18.7906 27.8991 17.8996 27.8991 16.8005C27.8991 15.7015 28.794 14.8105 29.898 14.8105ZM21.3311 13.4702C22.2773 13.4702 23.0445 14.2339 23.0445 15.176C23.0445 16.1181 22.2773 16.8818 21.3311 16.8818C20.3848 16.8818 19.6177 16.1181 19.6177 15.176C19.6177 14.2339 20.3848 13.4702 21.3311 13.4702ZM38.465 13.4702C39.4112 13.4702 40.1783 14.2339 40.1783 15.176C40.1783 16.1181 39.4112 16.8818 38.465 16.8818C37.5187 16.8818 36.7516 16.1181 36.7516 15.176C36.7516 14.2339 37.5187 13.4702 38.465 13.4702ZM18.251 9.20578C18.8481 9.20578 19.3321 9.68764 19.3321 10.282C19.3321 10.8764 18.8481 11.3583 18.251 11.3583C17.654 11.3583 17.17 10.8764 17.17 10.282C17.17 9.68764 17.654 9.20578 18.251 9.20578ZM41.545 8.88087C42.142 8.88087 42.626 9.36273 42.626 9.95713C42.626 10.5515 42.142 11.0334 41.545 11.0334C40.9479 11.0334 40.4639 10.5515 40.4639 9.95713C40.4639 9.36273 40.9479 8.88087 41.545 8.88087ZM29.898 7.5C30.664 7.5 31.285 8.11823 31.285 8.88087C31.285 9.6435 30.664 10.2617 29.898 10.2617C29.132 10.2617 28.511 9.6435 28.511 8.88087C28.511 8.11823 29.132 7.5 29.898 7.5Z" fill="#2F76D8"/>
</g>
<defs>
<clipPath id="clip0">
<rect width="60" height="60" fill="white"/>
</clipPath>
</defs>
</svg>
