<svg width="61" height="60" viewBox="0 0 61 60" fill="none" xmlns="http://www.w3.org/2000/svg">
<g clip-path="url(#clip0_865_486)">
<path d="M31 60C47.5685 60 61 46.5685 61 30C61 13.4315 47.5685 0 31 0C14.4315 0 1 13.4315 1 30C1 46.5685 14.4315 60 31 60Z" fill="#988430"/>
<path d="M31 59.039C47.0378 59.039 60.039 46.0378 60.039 30C60.039 13.9622 47.0378 0.960938 31 0.960938C14.9622 0.960938 1.96094 13.9622 1.96094 30C1.96094 46.0378 14.9622 59.039 31 59.039Z" fill="#7A6A2A"/>
<path d="M31.0001 58.4273C46.7 58.4273 59.4273 45.7 59.4273 30.0001C59.4273 14.3002 46.7 1.57288 31.0001 1.57288C15.3002 1.57288 2.57288 14.3002 2.57288 30.0001C2.57288 45.7 15.3002 58.4273 31.0001 58.4273Z" fill="#BA9F33"/>
<path fill-rule="evenodd" clip-rule="evenodd" d="M14.1165 26.796C13.9465 26.6408 13.767 26.4853 13.6019 26.3301C13.4368 26.1749 13.2672 26.0194 13.0973 25.8642L12.5923 25.3842C12.5097 25.3016 12.4224 25.229 12.3398 25.1461C12.2573 25.0735 12.1603 24.9909 12.0777 24.918C11.4077 24.2821 10.7337 23.6463 10.0729 23.0101C10.7574 23.6364 11.4275 24.2581 12.112 24.8936L12.3497 25.1317C12.4323 25.214 12.5197 25.2869 12.6022 25.3695L13.1069 25.8354C13.2768 25.9906 13.4419 26.1461 13.6118 26.3154C13.7817 26.4847 13.9469 26.6405 14.1168 26.7954L14.1165 26.796ZM5.22334 26.7C5.22334 26.7 7.66014 26.9522 8.84958 27.1221C9.95134 27.2776 13.3981 27.8066 13.3981 27.8066L5.22334 26.7ZM5.22334 26.7C5.90782 26.7583 6.5923 26.8309 7.27678 26.9039C7.62622 26.9378 7.96126 26.9765 8.2963 27.0104L8.81054 27.069C8.98046 27.093 9.14558 27.1173 9.3155 27.1416L11.3545 27.4667L12.3737 27.6367C12.7088 27.6949 13.0438 27.7583 13.3933 27.8165C13.0582 27.7826 12.7088 27.7339 12.3737 27.6853L11.3545 27.5397L9.3155 27.2389C9.14558 27.2146 8.98046 27.1804 8.81054 27.1564L8.29598 27.0972C7.96094 27.0632 7.6115 27.0146 7.27646 26.9756C6.59198 26.8933 5.9075 26.8056 5.22302 26.6991L5.22334 26.7ZM13.1555 28.4415C13.1555 28.4415 10.5536 29.1019 9.67486 29.3544C8.81086 29.5922 6.19422 30.3883 6.19422 30.3883L13.1552 28.4418L13.1555 28.4415Z" fill="#CFB66C"/>
<path fill-rule="evenodd" clip-rule="evenodd" d="M13.1553 28.4417C12.5777 28.6116 12.0033 28.7767 11.4174 28.9322L9.67947 29.3981C9.10187 29.5681 8.52747 29.7332 7.95147 29.9031L7.08747 30.1409C6.80107 30.2234 6.50987 30.2961 6.21387 30.3789C6.49995 30.2829 6.79147 30.1847 7.07787 30.1021L7.94187 29.8257C8.51947 29.6458 9.09387 29.4759 9.66987 29.2964C10.2571 29.1508 10.835 28.9953 11.4222 28.8545C11.9803 28.7137 12.5678 28.5732 13.1553 28.442V28.4417ZM6.55851 31.9905C6.84459 31.8836 10.1457 30.345 10.9127 29.9857C11.2967 29.8058 12.4129 29.4097 12.4129 29.4097L6.55851 31.9905Z" fill="#CFB66C"/>
<path fill-rule="evenodd" clip-rule="evenodd" d="M6.55843 31.9904C6.81059 31.8944 7.04867 31.777 7.29123 31.6653L8.00963 31.3302L9.45155 30.6362C9.93155 30.408 10.3981 30.1562 10.8931 29.9418C11.1456 29.8352 11.3981 29.7479 11.6503 29.6653L12.0343 29.544C12.1651 29.5101 12.2867 29.4711 12.4183 29.4371C11.9383 29.6653 11.433 29.8595 10.9523 30.0826C10.4723 30.3206 9.98147 30.5149 9.48611 30.7283L8.02019 31.3738C7.52803 31.5731 7.04803 31.7866 6.55811 31.9904H6.55843ZM6.87843 33.3344C6.87843 33.3344 9.86851 31.5821 10.8976 31.0189C11.4365 30.7181 13.1792 29.8538 13.1792 29.8538L6.87843 33.3344Z" fill="#CFB66C"/>
<path fill-rule="evenodd" clip-rule="evenodd" d="M6.87878 33.335C7.38342 33.0242 7.89798 32.7087 8.41254 32.3884L9.18054 31.9222C9.44262 31.767 9.6951 31.6214 9.9623 31.4662C10.2244 31.3106 10.4769 31.1554 10.7437 31.0098C10.8708 30.9314 11.0039 30.8632 11.1418 30.806L11.5495 30.6022C12.0884 30.3401 12.6273 30.0729 13.1953 29.8447C12.6807 30.1702 12.1514 30.447 11.6225 30.733C11.3604 30.8786 11.0932 31.0098 10.8311 31.1554C10.569 31.301 10.3165 31.4566 10.0493 31.5974C9.78726 31.7526 9.53478 31.8982 9.2679 32.039L8.47654 32.471L6.87942 33.335H6.87878ZM13.1553 30.2377C13.1553 30.2377 11.2961 31.6649 10.6941 32.1212C10.0922 32.5775 8.32038 33.8591 8.32038 33.8591L13.1553 30.2377V30.2377Z" fill="#CFB66C"/>
<path fill-rule="evenodd" clip-rule="evenodd" d="M23.8253 41.7476L22.8739 39.9466L23.4272 37.6941L27.3737 36.17L25.6941 32.7236L26.5241 29.2429L28.0826 26.1261L32.8982 25.369L36.4368 21.9952L44.0778 22.5728L45.5776 30.7428L42.6893 41.0292L41.0439 46.3546L34.3738 46.6071L31.2768 44.4615L27.6506 42.9466L23.8253 41.7476Z" fill="#E2CC85"/>
<path fill-rule="evenodd" clip-rule="evenodd" d="M35.5244 41.6892C35.5244 41.6892 34.6018 42.1116 33.0284 42.0143C32.573 41.4028 29.3839 41.1164 29.3839 41.1164C29.3839 41.1164 28.9858 40.9951 28.2818 41.2863C27.5733 41.5743 26.9032 41.5388 26.277 41.694C25.6508 41.8492 25.029 41.0339 24.549 40.8639C24.069 40.6844 23.4325 40.2524 23.4325 40.2524L22.0885 40.1212L19.3897 38.9804L15.102 34.7087L13.9369 36.5327L13.5775 38.79L14.8738 41.4649L18.3641 44.6444L25.1698 46.3724L29.2037 45.1839L34.2572 43.0479L35.5244 41.6889V41.6892Z" fill="#F1D789"/>
<path fill-rule="evenodd" clip-rule="evenodd" d="M11.3447 26.5924L12.2087 23.976L13.2381 22.2864L16.5533 22.0096L15.5581 24.9127L12.7866 29.8448L13.937 34.2477L11.8983 35.2669L11.2717 34.3059L10.7671 32.1021L10.7332 29.6263L11.3447 26.5924Z" fill="#F4ECB4"/>
<path fill-rule="evenodd" clip-rule="evenodd" d="M15.0632 41.5097L14.4273 40.6214C14.4273 40.6214 14.2574 40.199 14.3547 39.8301C14.4507 39.4563 14.4369 39.432 14.3886 39.2912C14.3403 39.1504 13.9323 38.6649 13.9566 38.2473C13.9806 37.8249 13.9227 37.6841 14.2331 37.3494C14.5582 37.0243 14.4613 36.4611 14.4613 36.4611L14.8837 36.7232L14.9797 36.5776C14.9797 36.5776 15.1349 36.6989 15.1349 36.8883C15.1688 36.6262 15.028 35.4125 15.3483 35.136C15.6686 34.8595 16.2366 36.432 16.2366 36.432L15.8872 34.1504L14.9889 31.8109L13.3918 29.6749L13.2958 27.3203V27.1165C13.2958 27.1165 12.5627 28.2429 12.3589 29.1325C12.2133 29.744 12.5627 30.4867 12.4901 31.3654C12.4315 32.2393 12.3589 32.1712 12.5723 32.5174C12.7857 32.8637 13.3054 33.5757 13.1016 34.0902C12.9221 34.5321 12.3102 34.2214 12.3102 34.2214C12.3102 34.2214 12.1889 34.5805 12.0238 34.7117C11.9656 34.4982 11.9025 34.3622 11.7861 34.2317C11.7761 34.3142 11.7521 34.4259 11.7521 34.4259C11.7521 34.4259 11.6453 34.0909 11.5384 33.6685C11.3931 33.1056 11.2376 32.3629 11.0968 31.9648C11.0385 32.1929 10.8929 32.887 10.8929 32.887L10.9755 33.9552L11.3736 35.4211L11.7576 36.3811L12.1313 37.5558L12.4561 38.3449L12.7182 38.9469L12.9464 40.3014L14.0481 41.4662L14.6357 41.7286L15.0625 41.5101L15.0632 41.5097Z" fill="#F3E19D"/>
<path fill-rule="evenodd" clip-rule="evenodd" d="M11.9222 24.4563C11.9222 24.4563 11.1308 25.8003 10.903 27.1552C10.6751 28.5101 10.471 29.9418 10.615 31.7862C10.7606 33.6457 11.0374 34.7862 11.2607 35.6019C11.6447 36.9565 12.6393 38.84 12.6393 38.84L12.6732 38.767C12.506 38.4501 12.3726 38.1166 12.2751 37.7718C12.1439 37.2573 12.0953 36.6457 11.974 36.3689C11.8671 36.0925 11.6876 35.8544 11.6002 35.5145C11.5177 35.1894 11.5042 34.6749 11.2508 34.2915C11.1439 34.136 11.0127 33.7283 10.974 33.3206C10.9254 32.7088 10.9983 32.0243 10.9401 31.4614C10.8332 30.5245 10.7606 29.8886 10.8575 29.3981C10.9545 28.9075 11.4598 27.5149 11.7705 26.408C11.9743 25.6992 11.8527 25.1021 12.2265 24.4855C12.6002 23.8739 12.8287 23.3351 12.911 22.9613C13.007 22.6215 11.9209 24.4563 11.9209 24.4563H11.9222Z" fill="#F2E8B0"/>
<path fill-rule="evenodd" clip-rule="evenodd" d="M15.6749 23.9175C15.6749 23.9175 15.2672 24.0391 15.073 24.2525C14.8788 24.4564 14.7962 24.6263 14.5341 24.9709C14.272 25.3156 14.2573 25.5972 14.0436 26.0292C13.8301 26.4516 13.3591 27.0874 13.3008 27.3156C13.2426 27.5437 13.1456 28.6116 13.0243 29.1165C12.9175 29.6215 13.1456 30.2429 13.1456 30.2429L13.4221 30.1844C13.4221 30.1844 13.4221 30.5437 13.6989 30.7866C13.9754 31.0244 14.024 29.9805 14.024 29.9805L15.058 26.4903L16.616 25.432L16.786 24.5776L15.6743 23.9175H15.6749Z" fill="#F5EEC0"/>
<path fill-rule="evenodd" clip-rule="evenodd" d="M16.432 25.5002C16.432 25.5002 15.6989 25.5485 15.3398 25.8109C15.1942 25.9174 15.136 26.0048 14.9808 26.136C14.6944 26.3738 14.4029 26.5923 14.2624 26.904C14.1069 27.2144 13.937 27.6854 13.8205 28.5738C13.7718 28.9475 13.7718 29.2922 13.7379 29.5933C13.6893 30.001 13.6166 30.3261 13.6554 30.5533C13.704 31.0192 14.1846 31.2621 14.2314 31.7911L15.2266 31.2864L16.1635 27.592L18.1539 26.344L17.0275 25.0819L16.4307 25.4979L16.432 25.5002Z" fill="#E6DB9D"/>
<path fill-rule="evenodd" clip-rule="evenodd" d="M11.1818 50.3772C11.186 50.3407 11.1902 50.3043 11.1943 50.2668C11.3396 49.0188 11.3642 48.0729 11.4708 47.4806C11.626 46.6409 11.7329 46.3286 11.7086 46.0143C11.6746 45.5097 11.6359 45.1407 11.6846 44.7523C11.7572 44.2377 12.2622 43.6262 12.2478 43.2038C12.2378 42.8687 12.0679 42.6505 11.9223 42.4467C11.7767 42.2428 11.6602 42.0729 11.6602 42.0729C11.6602 42.0729 12.6554 41.3884 12.6458 38.631C12.6662 38.6367 12.6857 38.6449 12.7041 38.6553L13.1943 40.0483L13.5294 40.4559L14.8158 42.854L16.4711 44.4611L18.9175 46.1065L20.4516 47.7759L20.6068 52.2275L18.602 54.8294L18.2737 55.4239C15.6653 54.1145 13.2734 52.4123 11.1815 50.3769L11.1818 50.3772Z" fill="#E5CB7A"/>
<path fill-rule="evenodd" clip-rule="evenodd" d="M17.3059 54.6357C17.3059 54.6357 17.3398 54.0825 17.7961 53.7231C17.8691 53.8444 17.9174 53.9612 17.903 54.0482C17.9856 53.9029 18.5632 52.9708 19.8691 52.7279C21.175 52.4901 21.4905 51.5388 21.4905 51.5388L24.2621 49.0194L27.432 46.102L31.2864 44.7474L33.0877 44.3055C33.0877 44.3055 33.1216 44.4367 33.0537 44.7279C33.3885 44.7039 34.1312 44.534 34.903 44.262C35.2137 44.1407 35.5053 44.0921 35.6605 44.2524C35.8886 44.4658 35.9225 44.9708 35.9369 45.2716C36.3107 45.189 36.7427 44.83 37.0889 44.8639C37.6425 44.9221 38.1328 45.5727 38.696 45.5727C39.4387 45.5727 39.7734 45.1164 40.2931 44.757C40.6038 44.5436 41.0502 44.277 41.3027 44.0969C41.9046 43.6549 48.2736 41.7084 48.2736 41.7084L50.5065 41.854L50.8659 44.2521L50.6739 50.5209C50.6502 50.5436 50.6265 50.5673 50.6025 50.59L40.4496 55.8927L26.376 58.0501C23.2234 57.5351 20.1812 56.4886 17.3789 54.9554L17.3069 54.6354L17.3059 54.6357Z" fill="#D8C173"/>
<path fill-rule="evenodd" clip-rule="evenodd" d="M12.0352 51.1747C12.2352 50.7565 12.415 50.4067 12.4467 50.2816C12.4716 50.5338 12.5174 51.0871 12.6096 51.6752C12.4161 51.5107 12.2246 51.3438 12.0352 51.1744V51.1747Z" fill="#F1D789"/>
<path fill-rule="evenodd" clip-rule="evenodd" d="M22.3158 57.0742L24.136 56.568L24.2912 56.6167C24.2912 56.6167 24.3738 56.6653 24.3738 56.8301C24.6019 56.6992 24.7962 56.7232 24.937 56.6362C25.0096 56.7914 25.0822 57.3059 25.4029 57.369C25.7376 57.4419 26.097 57.2234 26.4611 56.9469C26.8202 56.6605 27.2291 56.3011 27.5386 56.1555C27.6521 56.3643 27.7527 56.5798 27.8397 56.801C28.2474 56.4759 28.9562 55.1555 29.9658 55.1795C30.2576 54.4899 30.7451 53.901 31.368 53.4854C32.305 52.8496 32.8922 52.801 33.6253 52.8592C33.9165 52.481 34.2753 52.16 34.6835 51.9126C34.8048 51.9613 35.1399 52.1651 35.5575 51.9709C35.9799 51.777 36.4554 51.0243 37.0816 50.9274C37.4191 50.8809 37.7622 50.953 38.0525 51.1312C38.0525 51.1312 39.8765 49.3203 41.1351 48.7184C41.0864 48.5728 40.9895 48.0243 42.465 46.8106C42.5476 46.8835 42.4893 47.0874 42.5476 47.0986C42.5716 47.0986 42.9316 46.9434 43.3872 46.5936C43.9504 46.1715 44.625 45.7296 45.0327 45.6083C45.8007 45.3802 46.6154 45.8461 46.6154 45.8461C46.6847 45.7975 46.7619 45.7613 46.8436 45.7392C47.0375 45.7053 47.1783 45.681 47.2852 45.6432C47.2756 45.8957 47.4164 46.3277 47.2852 46.7014C47.4371 46.7869 47.5981 46.8553 47.7652 46.9053C47.6829 47.0848 47.5031 47.5411 47.2023 47.7597C47.4544 47.881 47.4884 48.0218 47.8477 48.1437C47.7021 48.3475 47.4637 48.6973 47.3575 48.9117C47.2506 49.1398 46.8669 50.0864 46.697 50.4454C46.5175 50.8048 46.2749 51.465 46.1581 51.5974C46.0413 51.7299 45.6192 52.2915 45.2941 52.568C45.5821 52.4611 46.7604 52.1021 47.2602 51.9661C47.1114 52.1843 46.3572 53.3034 45.632 54.3795C42.1602 56.4605 38.2847 57.7776 34.2638 58.243C30.243 58.7085 26.1691 58.3117 22.3136 57.079L22.3158 57.0742Z" fill="#E0CD81"/>
<path fill-rule="evenodd" clip-rule="evenodd" d="M16.552 25.3689C16.552 25.3689 16.1299 25.3689 16.0474 25.4271C15.9648 25.4854 16.4698 25.607 16.625 25.6652C16.7802 25.7234 17.1152 25.9903 17.2026 26.2041C17.2852 26.4079 20.2365 27.597 20.2365 27.597L22.3239 27.4902L23.0436 26.4959L21.6746 25.2969L22.6346 22.4668L21.3629 22.6706L18.3047 24.4946L16.7706 25.0822L16.552 25.3689Z" fill="#DFC57C"/>
<path fill-rule="evenodd" clip-rule="evenodd" d="M21.1359 26.3059C21.1661 26.3547 21.2086 26.3948 21.2591 26.422C21.3097 26.4493 21.3665 26.4628 21.4239 26.4611C21.8559 26.4611 22.2537 26.568 22.4188 26.7862C22.6956 27.136 23.4626 28.2525 23.4626 28.2525L25.2975 28.9126L25.4159 26.752L23.4111 25.359L21.1295 26.1987V26.3056H21.1346L21.1359 26.3059Z" fill="#E5CC7C"/>
<path fill-rule="evenodd" clip-rule="evenodd" d="M20.7759 27.1069C20.7759 27.1069 21.1106 27.1312 21.533 26.9757C21.9554 26.8202 22.6495 26.4854 22.9506 26.6166C23.3727 26.7962 23.2853 27.3594 23.742 27.8646C24.0185 28.1754 24.5234 28.1658 24.8098 28.5008C25.0962 28.8358 26.0815 28.6803 26.0815 28.6803L26.4553 30.6963L24.9554 32.6189L24.4649 35.007H22.4367L20.5839 34.272L19.6713 32.064L20.1276 29.831L20.7759 27.1069Z" fill="#D2C281"/>
<path fill-rule="evenodd" clip-rule="evenodd" d="M24.6992 27.2038C24.7495 27.2193 24.8018 27.2275 24.8544 27.2281C24.7962 27.2767 24.6746 27.3833 24.7232 27.6601C24.7719 27.9369 24.9271 28.2863 24.7962 28.4998C24.9007 28.614 24.9786 28.75 25.0244 28.8979C25.1069 29.1359 25.1312 29.3542 25.6698 29.3884C25.5921 29.4363 25.5204 29.4933 25.4564 29.5583C25.4564 29.5583 25.8301 29.8834 26.0196 30.1842C26.2135 30.1759 26.728 30.0159 26.728 30.0159L26.8349 30.0889L27.0631 29.9929C27.0631 29.9929 26.8496 29.9103 27.0048 29.391C27.1504 28.9347 27.2816 28.959 27.2928 28.9251C27.304 28.8911 27.3997 28.4105 27.3997 28.2163C27.4724 27.9641 27.5306 27.1971 27.5306 27.1971L27.3754 25.503L26.5018 24.9737L25.7914 24.288L25.1213 25.55L24.68 25.99L24.6461 27.0822L24.6992 27.2038Z" fill="#E2C270"/>
<path fill-rule="evenodd" clip-rule="evenodd" d="M26.8009 25.7865C26.8009 25.7865 26.9561 26.2281 27.0147 26.568C27.0353 26.5019 27.0467 26.4333 27.0486 26.3641C27.0486 26.3641 27.1699 27.0342 27.1939 27.311C27.2425 27.3011 27.2899 27.2867 27.3007 27.335C27.3116 27.3833 27.4223 27.9225 27.3967 28.2233C27.5989 27.8898 27.8786 27.6101 28.2121 27.408C28.4063 27.2864 28.6345 27.1555 28.8726 27.1456C29.2463 27.136 29.518 27.3837 29.9647 27.3837C31.0422 27.3837 32.0182 26.5923 32.7366 26.3497C33.2655 26.1699 33.7219 26.039 34.0422 25.7475C34.1977 25.6166 34.4745 25.3254 34.7267 24.8931C35.0617 24.3171 35.4111 23.8157 35.7609 23.7526C35.6027 23.7817 35.4417 23.7931 35.2809 23.7865C35.2809 23.7865 35.3878 23.6797 35.5689 23.5341C35.75 23.3885 35.967 23.2089 36.2774 23.2089C36.831 23.2089 37.1075 23.2912 37.4182 23.2912C37.7289 23.2816 37.9084 23.2089 37.9084 23.2089C37.9084 23.2089 38.2339 23.4371 38.9667 23.4371C39.6998 23.4467 40.19 23.5097 40.5737 23.544C40.9574 23.5782 42.2435 23.4371 42.6124 23.448C42.853 23.4572 43.0892 23.515 43.3068 23.6179L42.1174 20.1619L37.8447 16.4275L35.3011 18.2285L31.3881 22.1411L27.6019 23.544L26.8105 24.4323V25.7865H26.8009Z" fill="#CCB360"/>
<path fill-rule="evenodd" clip-rule="evenodd" d="M35.2963 23.8058C35.2963 23.8058 35.4032 23.6993 35.5824 23.5537C35.7616 23.4081 35.9808 23.2282 36.2912 23.2282C36.8444 23.2282 37.1212 23.3108 37.432 23.3108C37.7427 23.3012 37.9222 23.2282 37.9222 23.2282C37.9222 23.2282 38.248 23.4561 38.9805 23.4561C39.7136 23.4657 40.2038 23.5287 40.5875 23.5626C40.9712 23.5966 42.2573 23.4561 42.6262 23.4666C42.8667 23.4757 43.1028 23.5335 43.3203 23.6366L42.7814 22.0782L42.1555 20.889L40.3689 18.9326C40.3689 18.9326 38.2249 17.6705 38.2086 17.6609C38.199 17.6513 37.4659 17.457 37.4659 17.457L35.5241 18.6318L33.7622 23.1902L33.7283 24.1502L34.8688 24.689C35.1552 24.209 35.471 23.825 35.767 23.7764C35.4998 23.8055 35.296 23.8055 35.296 23.8055L35.2963 23.8058Z" fill="#D5B457"/>
<path fill-rule="evenodd" clip-rule="evenodd" d="M35.272 24.1312C35.1021 24.1408 34.9616 24.1069 34.9225 23.9856C34.7769 23.5779 34.6605 23.5197 34.5385 23.5197C34.4166 23.5197 34.2522 23.7817 34.1546 23.8057C34.057 23.8297 33.9411 23.5049 33.9411 23.5049L33.8342 23.4563C33.8342 23.4563 33.208 23.864 32.7664 24.3446C32.3248 24.8253 31.6013 25.6409 31.2762 25.7862C30.9511 25.9315 29.8343 25.9805 29.4522 26.063C29.0701 26.1456 28.6464 26.4224 28.5882 26.4854C28.53 26.5485 28.7584 26.6163 28.7924 26.6793C28.8263 26.7376 28.4183 26.7133 28.3844 26.7753C28.3604 26.824 28.4804 27.1005 28.5399 27.2413C28.644 27.1895 28.7583 27.1613 28.8746 27.1587C29.2483 27.1491 29.5203 27.3968 29.9667 27.3968C31.0445 27.3968 32.0202 26.6054 32.7386 26.3625C33.2678 26.183 33.7242 26.0518 34.0445 25.7606C34.1997 25.6297 34.4765 25.3382 34.729 24.9062C34.9133 24.6102 35.0931 24.3334 35.2729 24.1296L35.272 24.1312Z" fill="#D2B257"/>
<path fill-rule="evenodd" clip-rule="evenodd" d="M19.8161 48.1555C19.8161 48.1555 19.7201 47.7962 18.8305 46.8691C18.578 46.607 18.4228 46.3891 18.2529 46.2333C17.8305 45.8349 17.5828 45.7283 17.282 45.5002C16.6218 45.0099 15.9034 45.0099 15.3501 44.408C14.7969 43.8061 14.1521 42.656 13.7041 41.4806C13.2625 40.3059 13.1409 39.9321 13.1409 39.8982C13.1409 39.8643 13.2625 39.6361 13.4177 39.6701C13.5729 39.704 13.5729 40.0048 13.6119 40.0777C13.6892 40.1968 13.7769 40.3088 13.874 40.4125C14.1021 40.6749 14.4273 40.9885 14.5924 41.4563C14.5585 41.0582 14.4225 40.6166 14.4225 40.6166C14.4225 40.6166 15.2769 41.1555 16.0049 41.7184C16.738 42.2816 17.0388 42.4758 17.2529 42.8349C17.4669 43.1939 17.9713 44.1408 18.2129 44.4176C18.4545 44.6944 21.7649 45.7379 21.7649 45.7379L23.3396 46.912L24.1213 48.6256L23.5095 49.5856L22.3348 49.8381L20.4269 48.9837L19.8161 48.1552V48.1555Z" fill="#D2B159"/>
<path fill-rule="evenodd" clip-rule="evenodd" d="M15.5775 42.2525C15.5775 42.2525 15.9756 42.8883 16.9465 43.4903C17.8204 44.0195 19.2037 44.5002 20.437 44.7866C21.1455 44.9565 21.8543 45.0874 22.4901 45.0973C24.2037 45.1213 25.3833 44.6314 26.8447 44.4711C27.6361 44.3885 28.6069 44.3255 29.6165 44.0871C30.9125 43.7763 31.6796 43.4266 32.7234 42.9351C33.4805 42.5856 34.1749 42.3235 34.7378 41.9885C35.5292 41.5226 36.1068 41.0032 36.7768 40.848C36.6943 41.0762 36.6069 41.4839 35.9468 41.9063C36.2962 41.8963 36.7768 41.8723 36.7768 41.8723C36.7768 41.8723 36.3109 42.1488 35.4904 42.7703C34.9855 43.1543 34.3157 43.8042 33.6312 44.2362C33.1893 44.513 32.7087 44.7162 32.3932 44.8819C31.6252 45.3043 31.3154 45.5178 30.8108 46.0339C30.9903 46.0243 31.005 46.0339 31.005 46.0339C31.005 46.0339 30.3688 46.1165 29.9128 46.3591C29.8169 46.3591 29.6504 46.3251 29.3592 46.4077C29.1311 46.4803 28.83 46.6458 28.5196 46.7328C28.0777 46.864 27.9324 46.8058 27.9324 46.8058L28.005 46.9514C28.005 46.9514 27.429 46.9415 27.237 46.961C27.2709 46.9706 27.2613 46.9853 27.2613 46.9853C27.2276 46.991 27.1951 47.0024 27.1653 47.0192C27.0729 47.0791 26.9713 47.1233 26.8645 47.1501C26.8063 47.1597 26.7577 47.1597 26.6847 47.1744C26.709 47.2327 26.8985 47.5584 26.9858 47.7504C26.9132 47.7991 25.8207 48.6243 25.8207 48.6243C25.8546 48.6777 25.8823 48.7347 25.9033 48.7943C25.9372 48.9008 25.9519 49.0563 25.9858 49.129C26.0681 49.2746 26.1167 49.2989 26.1167 49.2989C26.1167 49.2989 25.9858 49.3232 25.7573 49.3815C25.5634 49.4301 25.3253 49.5123 24.9893 49.561C24.8862 49.5744 24.7825 49.5825 24.6786 49.5853C24.7273 49.6922 24.9407 50.0999 24.5474 50.5706C24.1541 51.0413 24.0329 51.1098 23.9116 51.4106C23.8505 51.3644 23.7855 51.3237 23.7173 51.289C23.5865 51.2307 23.4066 51.1437 23.3436 51.0269C23.3068 51.1825 23.2582 51.3351 23.198 51.4832C23.0767 51.8083 22.8972 52.129 22.8633 52.3715C22.7321 52.2259 22.4895 51.9395 22.1545 51.9978C21.8194 52.056 21.5525 52.5123 21.4943 52.6435C21.4943 52.561 21.4361 52.4979 21.4217 52.5949C21.4117 52.7018 21.2274 53.8179 20.1983 54.721C20.1887 54.4928 20.1887 53.9879 20.1644 53.8231C20.0684 53.9191 19.9509 54.0608 19.2517 54.3619C18.5673 54.6627 18.6757 54.9639 18.6757 54.9639C18.6757 54.9639 18.6175 54.4839 18.9865 53.9783C19.3602 53.4736 19.5884 53.2355 19.5884 53.1968C19.5824 53.1574 19.5655 53.1204 19.5397 53.0899C19.4911 53.0413 19.3941 52.9831 19.3941 52.9443C19.4524 52.9203 20.03 52.6435 19.9961 52.0704C19.9621 51.5562 19.7439 51.289 19.5884 51.0999C19.5644 51.0755 19.8169 50.896 19.7826 50.8378C19.7583 50.8039 19.4479 50.5754 19.4089 50.4538C19.418 50.3812 19.4343 50.3097 19.4575 50.2403C19.4914 50.1335 19.5157 50.0605 19.5061 49.9879C19.4818 49.8666 19.3506 49.5315 19.3119 49.4976C19.3458 49.5072 19.5884 49.4976 19.5884 49.4976C19.5884 49.4976 19.3945 49.1869 19.3602 49.0413C19.326 48.8957 19.2533 48.512 19.2146 48.4394C19.2972 48.449 19.501 48.4634 19.501 48.4394C19.5109 48.3664 19.3215 48.2451 19.405 48.1514C19.4633 48.161 19.5749 48.2096 19.6815 48.3456C19.6233 48.1901 19.5263 47.8893 19.3221 47.768C19.4181 47.7341 19.7445 47.6464 20.0309 47.8163C20.3173 47.9863 20.4149 48.224 20.4149 48.224C20.4149 48.224 20.5849 48.3552 20.8473 48.5495C21.1481 48.7872 21.5314 49.1255 22.1433 49.3648C22.2745 49.4378 22.6092 49.4378 22.8521 49.3891C22.9578 49.3639 23.0592 49.3231 23.1529 49.2679C23.1867 49.2479 23.2225 49.2316 23.2597 49.2192C23.2076 49.1145 23.1475 49.0138 23.0802 48.9181C23.1628 48.9181 23.2597 48.928 23.2597 48.928C23.2597 48.928 23.318 48.7968 23.0559 48.544C23.1141 48.4858 23.1871 48.448 23.1871 48.3498C23.1045 48.3402 22.9589 48.2189 22.925 48.1703C22.9733 48.1363 23.0463 48.0247 23.1289 47.9907C23.0559 47.9325 22.8764 47.6896 22.7938 47.6656C22.8727 47.6363 22.949 47.6006 23.022 47.5587C23.022 47.5587 22.6143 47.4519 22.4831 47.3645C22.3519 47.2685 22.158 47.1024 22.0415 47.0538C21.9199 47.0051 21.7065 46.9811 21.6191 46.8839C21.7013 46.9082 21.8325 46.8839 21.9298 46.8839C22.0025 46.8839 22.0367 46.8935 22.0607 46.8935C22.0511 46.8595 22.0511 46.7866 22.2405 46.7626C22.3317 46.7488 22.4201 46.721 22.5026 46.68C22.5026 46.68 22.3228 46.6704 22.1186 46.4762C21.9145 46.2819 21.7449 46.1267 21.6284 46.1024C21.5071 46.0781 21.2789 46.185 21.1381 46.1751C20.9439 46.1511 20.8613 46.0538 20.8613 46.0538C20.8613 46.0538 20.2159 46.112 18.7839 45.2384C17.5458 44.481 17.007 43.8112 17.007 43.8112C16.8911 43.7692 16.7791 43.7171 16.6722 43.6557C16.2063 43.4131 15.5606 42.9082 15.5801 42.2477L15.5775 42.2525Z" fill="#C2A44D"/>
<path fill-rule="evenodd" clip-rule="evenodd" d="M33.4367 13.1164C33.549 13.1529 33.6488 13.2202 33.7247 13.3107C33.9529 13.5727 34.0985 14.0678 33.5791 14.5971C33.783 14.6697 33.8671 14.6931 34.0451 14.6697C33.8655 14.8835 33.4578 15.3398 33.4335 15.7379C33.4092 16.063 33.613 16.1603 33.613 16.1603C33.613 16.1603 33.3023 16.5193 33.2879 17.1203C33.4347 16.9548 33.5952 16.8021 33.7679 16.6639C34.1273 16.3775 34.6223 16.0524 34.9574 15.8486C34.9528 15.934 34.9643 16.0196 34.9913 16.1007C34.9913 16.1007 35.6172 15.5862 36.1433 15.8147C36.3811 15.9215 36.2742 16.2563 36.2742 16.2563C36.2742 16.2563 36.5996 16.135 36.8278 16.3631C37.0559 16.5913 37.3785 17.1798 37.5439 17.4079C37.6166 17.5148 37.806 17.7187 37.9999 18.0342C38.2649 18.4759 38.4861 18.9425 38.6604 19.4271C38.67 19.1747 38.7331 18.7817 39.4518 19.0291C40.1702 19.2815 40.9855 19.8108 41.67 20.8531C42.3545 21.8953 42.5241 23.0719 42.8688 23.5199C43.2182 23.9519 43.5776 24.6703 43.6019 24.9715C43.6262 25.2726 43.495 26.2431 44.2134 28.8694C44.4172 28.054 44.728 26.2431 44.728 26.2431L44.8979 24.646L45.0921 19.7043L39.9318 15.4172L35.8979 12.4899L33.2716 12.7423L33.4364 13.1161L33.4367 13.1164Z" fill="#CAA13E"/>
<path fill-rule="evenodd" clip-rule="evenodd" d="M43.0244 20.4707C43.0244 20.4707 42.9514 19.9907 41.738 19.1747C40.5242 18.3689 39.5776 18.3689 38.704 17.6844C38.034 17.1456 37.3351 15.9075 36.88 15.4998C36.4381 15.0969 36.3655 13.9318 36.3655 13.9318L37.8557 12.6838L40.072 9.48028L41.9456 7.41724L42.8436 8.66524L44.0916 10.1312L44.7856 13.0729L45.0381 17.3788L43.0221 20.471L43.0244 20.4707Z" fill="#B59544"/>
<path fill-rule="evenodd" clip-rule="evenodd" d="M44.5245 25.632C44.5612 24.979 44.4806 24.3247 44.2864 23.7002C43.9664 22.705 43.2672 20.9379 42.9424 20.2762C42.8112 19.5431 42.9085 19.4848 43.0493 19.4023C43.1901 19.3197 43.7193 19.0183 44.0093 17.9607C44.2992 16.9031 45.1987 16.8685 45.1987 16.8685L45.752 16.4608L46.592 18.5626L47.3248 20.4608L47.553 21.9123L47.7229 23.1501L47.3248 25.7667L45.359 27.5434L44.5241 25.632H44.5245Z" fill="#C89D3A"/>
<path fill-rule="evenodd" clip-rule="evenodd" d="M17.0924 54.7965V54.7428C17.1333 54.7172 17.1693 54.6847 17.199 54.6468C17.2329 54.5981 17.2575 54.5399 17.2815 54.5255C17.3302 54.5012 17.5583 54.4295 17.6796 54.4525C17.8009 54.4756 18.1215 54.6077 18.2915 54.5981C18.6409 54.5885 19.0486 54.3213 19.6943 54.4429C20.6652 54.6224 20.8934 55.2826 21.4566 55.6564C21.8406 55.9188 22.238 55.802 22.2963 55.802H22.4272C22.4515 55.802 22.631 55.5981 22.7283 55.608C22.9225 55.6176 22.9417 55.778 23.063 55.7876C23.3494 55.8215 23.903 55.642 24.1798 55.7149C24.2619 55.7406 24.3365 55.7858 24.3974 55.8466C24.4582 55.9074 24.5035 55.982 24.5292 56.064C24.5875 56.2436 24.5388 56.4717 24.398 56.6029C24.0972 56.8794 23.8108 57.1418 23.7526 57.3709C23.8267 57.4274 23.8978 57.4877 23.9657 57.5514C21.5638 56.9395 19.2529 56.0142 17.0924 54.7994V54.7965Z" fill="#CEB052"/>
<path fill-rule="evenodd" clip-rule="evenodd" d="M42.9418 45.0973C42.9418 45.0973 43.6989 44.0877 43.9613 43.5875C44.2234 43.072 43.1312 36.544 43.1312 36.544L45.3255 29.3549L45.2669 27.015C45.2669 27.015 45.3738 24.8547 45.6263 23.9178C45.9274 24.4566 46.8644 25.1072 47.0682 25.4518C47.1642 24.7914 47.4903 23.3984 47.442 21.913C47.6215 22.1894 48.0535 24.9712 48.0535 24.9712L48.4855 26.8448L49.0487 28.8352L49.6749 30.9373L50.0487 32.3888L50.2621 32.7382L50.442 33.3498L50.6119 34.0102L51.1021 35.5587L51.3901 36.8304L51.6183 39.1363C51.6679 39.3129 51.7037 39.4931 51.7252 39.6752C51.7348 39.9277 51.6913 40.0733 51.6913 40.1171C51.6913 40.161 51.7738 40.6704 51.7399 41.0541C51.6913 41.4381 51.6913 41.7386 51.3901 42.0141C51.089 42.2896 50.8999 43.9363 50.8999 43.9363L50.361 43.5773C50.361 43.5773 50.4679 43.0867 50.2154 42.6403C49.9629 42.1939 49.4727 42.1014 49.1959 42.1744C48.9194 42.2326 48.3661 42.3197 48.1863 42.4752C48.0164 42.6304 47.5991 43.111 47.2154 43.3296C46.7354 43.6176 45.9533 43.6403 45.536 43.7373C45.1136 43.8333 44.6477 44.1213 44.1571 44.4557C43.7725 44.7047 43.3664 44.9189 42.9437 45.0957V45.0957L42.9418 45.0973Z" fill="#CCA847"/>
<path fill-rule="evenodd" clip-rule="evenodd" d="M42.9418 55.704C42.9418 55.704 42.9738 55.7248 43.0355 55.7588C46.4843 54.1429 49.5745 51.8525 52.1235 49.0228C52.0957 48.0404 52.0595 47.0333 52.0198 46.6602C51.9376 45.8688 51.9958 45.0631 51.9715 44.5972C51.9472 44.1312 51.6851 42.233 51.5638 41.7428C51.4326 41.2525 51.1798 41.0096 51.1414 41.0096C51.1075 41.0196 50.9034 41.9322 50.9034 42.1616C50.9034 42.3911 50.8547 42.9434 50.8547 43.0842C50.8208 43.0743 50.8064 42.9882 50.8064 42.953C50.7578 43.0743 50.6995 43.288 50.6752 43.3124C50.6509 43.3367 50.7091 43.1085 50.6752 43.0599C50.6413 43.0112 50.5792 43.0356 50.5926 42.9143C50.5984 42.8424 50.6097 42.771 50.6266 42.7008C50.6266 42.7008 50.481 42.9143 50.3744 43.458C50.2675 43.9968 50.2675 44.0116 50.2288 44.0599C50.1949 44.1184 50.0006 44.3124 49.9907 44.3853C49.9811 44.5162 50.1706 44.6474 50.185 44.72C50.1946 44.8416 50.015 45.4045 49.9568 45.68C49.8986 45.9556 49.9229 46.4954 49.8608 46.7722C49.8122 47.0247 49.7648 47.1703 49.5987 47.2768C49.72 47.3012 49.8365 47.3351 49.8365 47.3351C49.8365 47.3351 50.0064 48.0535 49.5744 48.6653C49.4192 48.8788 49.3805 48.976 49.2154 49.1703C48.8899 49.5293 48.6375 49.9383 48.6131 50.2042C48.5963 50.1257 48.585 50.0462 48.5792 49.9661C48.5792 49.9661 48.0746 50.5536 47.8608 50.8887C47.5843 51.3207 47.2007 51.2964 47.0928 51.4032C46.985 51.5101 46.9616 51.704 46.9968 51.8596C46.9008 51.8836 46.7203 51.9178 46.5987 52.2916C46.5405 52.4855 46.3949 52.6756 46.1667 52.8061C45.9386 52.9367 45.6618 52.976 45.521 53.01C45.6423 53.0439 45.6909 53.0439 45.7491 53.0826C45.6765 53.2039 45.3414 53.3933 44.9677 53.6362C44.5939 53.8644 44.4141 54.1991 44.3219 54.4176C44.2259 54.6215 44.0842 54.7527 43.856 54.777C43.952 54.8352 44.0941 54.9709 44.1667 55.0148C44.0598 55.0391 43.8787 55.0391 43.5552 55.3159C43.2154 55.5975 43.0989 55.68 42.9434 55.7044L42.9418 55.704Z" fill="#C39D3C"/>
<path fill-rule="evenodd" clip-rule="evenodd" d="M36.1873 57.9535C36.3731 57.8233 36.5745 57.7165 36.7866 57.6358C37.5437 57.335 38.3447 57.2767 38.6602 57.1798C38.9613 57.0838 39.1991 56.9513 39.5729 56.8787C39.5629 56.9638 39.5546 57.0438 39.5457 57.1193C38.4438 57.4657 37.3216 57.7443 36.1857 57.9535H36.1873Z" fill="#D2BA6B"/>
<path fill-rule="evenodd" clip-rule="evenodd" d="M50.152 38.039C50.152 38.039 49.9968 38.8787 49.72 39.408C49.4432 39.9372 49.144 40.67 49.144 40.67C49.1458 40.5049 49.1654 40.3404 49.2023 40.1795C48.8528 40.3833 48.0032 40.8739 47.7623 41.0921C47.5341 41.296 47.1504 41.6553 47.0535 41.8252C47.2816 41.1555 47.5194 40.5536 47.5584 40.2768C47.209 40.5292 45.5776 41.8739 44.7283 42.7622L42.0826 44.903C41.7773 45.0677 41.4628 45.2149 41.1408 45.3439C40.6848 45.5379 40.1459 45.703 39.7479 45.8585C39.8547 45.5721 40.0243 45.3193 40.2624 45.0767C40.5149 44.839 41.272 44.0185 41.3885 43.6367C41.4954 43.2387 41.5197 43.0009 41.3789 42.6659C41.2477 42.6998 40.9469 42.7145 40.7431 42.7727C40.5392 42.831 40.3207 43.0492 40.3207 43.0492C40.3207 43.0492 40.4759 42.1609 40.8109 41.3212C40.5584 41.3308 40.1264 41.4035 40.1264 41.4035C40.1264 41.4035 40.7283 40.3939 41.7584 39.6902C41.443 39.7573 41.1343 39.8531 40.8362 39.9763C40.2343 40.2288 39.5741 40.6025 39.0839 40.8063C39.3603 40.4224 41.3021 37.6512 42.4576 35.0684C43.6096 32.4908 44.04 31.8307 44.2925 30.4473C44.4234 29.7629 44.3885 28.7513 44.4234 27.8454C44.4573 26.9472 44.569 26.1414 44.4963 25.6025C44.7971 25.9763 45.9235 27.0297 45.9623 29.3843C45.9962 31.7385 44.8848 34.9184 43.705 36.6316C43.993 36.7142 44.7392 36.8115 45.5059 35.4796C46.2727 34.1478 46.2634 33.776 46.5402 33.2224C46.5741 33.4992 46.5642 33.5961 46.5642 33.5961C46.5642 33.5961 47.681 32.2419 48.2099 30.5379C48.3168 31.271 48.6323 31.9168 48.137 33.2614C47.6954 34.4748 47.1178 34.7712 47.1178 34.7712C47.1178 34.7712 47.4042 34.7225 47.8263 34.47C47.8992 34.6496 47.8848 34.854 48.0061 34.9264C48.1274 34.9987 48.2925 35.1206 48.3168 35.2371C48.4477 35.0428 48.6515 34.7952 48.7149 34.6108C48.6663 34.9948 48.6323 36.6739 48.8109 37.5283C49.185 37.4944 49.5683 37.47 49.8304 36.7952C49.6509 37.4556 49.6509 37.8534 49.7722 38.4166C49.9712 38.2809 50.1507 38.038 50.1507 38.038L50.152 38.039Z" fill="#C0993A"/>
<path fill-rule="evenodd" clip-rule="evenodd" d="M37.5388 11.2816C37.5388 11.2816 37.1651 11.4368 36.5292 11.4368C35.9759 11.4368 36.1311 11.2234 35.2671 11.2234C33.9372 11.2234 29.2914 11.9914 28.4757 11.9805C27.9465 11.9709 30.262 12.2087 30.262 12.2087L36.1798 12.2912L37.3689 12.1952L37.8108 11.296L37.5388 11.2816Z" fill="#A88F33"/>
<path fill-rule="evenodd" clip-rule="evenodd" d="M22.1942 22.8496C22.1942 22.8496 21.4368 23.4272 21.1165 23.8691C20.7962 24.311 20.6262 24.6019 20.2621 24.9612C20.3476 24.9645 20.433 24.953 20.5146 24.9273C20.5146 24.9273 20.5146 25.0233 20.4563 25.0486C20.5067 25.043 20.5576 25.0487 20.6054 25.0653C20.6533 25.0819 20.6968 25.109 20.7328 25.1446C20.6259 25.2028 20.3347 25.4944 20.5629 25.839C20.7328 26.1011 21.0922 26.1251 21.0922 26.1251C21.0922 26.1251 21.0096 26.3632 21.3542 26.3388C22.097 26.3049 22.927 25.9795 23.3104 26.062C23.6944 26.158 23.9126 26.1932 24.1843 26.6643C24.4723 27.1302 24.7232 27.2032 24.7232 27.2032C24.7232 27.2032 24.8931 26.7708 24.8544 26.1254C24.9937 25.7775 25.0709 25.4078 25.0826 25.0332L24.8301 23.174L23.7283 21.7808L22.3011 22.5721L22.1942 22.8486V22.8496Z" fill="#E3C571"/>
<path fill-rule="evenodd" clip-rule="evenodd" d="M23.5485 22.5727C23.5485 22.5727 23.6553 22.8252 24.1021 22.8492C24.0534 22.9561 24.0534 22.9708 24.0681 23.0531C24.0777 23.1356 24.0921 23.2569 24.0921 23.2569C24.1413 23.2331 24.1858 23.2006 24.2233 23.1609C24.2477 23.2678 24.199 23.4374 24.2233 23.559C24.2383 23.6329 24.2628 23.7047 24.296 23.7724C24.3031 23.7558 24.3112 23.7397 24.3203 23.7241C24.3299 23.6998 24.4163 23.9862 24.6553 24.2041C24.6551 24.1706 24.6634 24.1376 24.6793 24.1081C24.683 24.169 24.7031 24.2277 24.7376 24.278C24.7197 24.2695 24.7034 24.258 24.6893 24.2441C24.6893 24.2441 24.7133 25.0121 24.8445 25.4092C24.8664 25.3836 24.8859 25.3559 24.9027 25.3267C24.9027 25.3027 24.8931 25.5404 24.8688 25.7107C24.8349 25.8806 24.8592 26.1183 24.8592 26.1183C24.9467 26.0494 25.0429 25.9923 25.1453 25.9484C25.2909 25.8899 25.5293 25.7103 25.6745 25.3123C25.7588 25.0868 25.8238 24.8546 25.8688 24.6182C25.9157 24.7085 25.9481 24.8057 25.9648 24.9062C25.9747 25.0275 26.2029 24.9644 26.2029 24.9644L26.2515 24.4351L26.5395 23.2361L26.8016 22.4934L28.0637 20.5276L30.344 18.7715L32.3344 19.2278L34.0137 16.9462L31.1206 15.2083L28.3827 15.4947L25.8979 18.9363L23.9078 22.0579L23.5485 22.5724V22.5727Z" fill="#D8B65B"/>
<path fill-rule="evenodd" clip-rule="evenodd" d="M37.8883 17.5924C37.8883 17.5924 37.7184 17.6263 37.2281 17.8804C36.7379 18.1344 36.398 18.2151 36.2086 18.5888C36.0192 18.9626 36.0048 19.2589 36.0048 19.2589C36.0048 19.2589 36.3398 19.1133 36.534 19.0647C36.7379 19.0164 36.966 19.0308 36.9417 19.1133C36.9184 19.1699 36.886 19.2223 36.8457 19.2685C36.8457 19.2685 37.2297 19.2589 37.2195 19.4484C37.2092 19.6378 37.1468 19.8464 37.0742 19.9386C37.0012 20.0346 36.7004 20.1767 36.6665 20.2884C36.584 20.5165 36.7004 20.5261 36.6566 20.7104C36.6227 20.8903 36.4627 21.2397 35.9382 21.8512C35.3993 22.4631 35.1702 22.8951 35.1702 22.8951C35.1702 22.8951 34.9081 22.4048 34.7721 21.9824C34.6761 22.0308 34.1606 22.3172 34.1606 22.3172L32.9664 18.1572L32.9904 17.8804C32.9904 17.8804 33.0972 17.7495 33.1216 17.5066C32.942 17.4484 32.9177 17.3997 32.6796 17.1719C32.4416 16.944 32.2476 16.6669 31.8499 16.4775C31.7916 16.3706 31.7187 16.2253 31.4275 16.1667C31.1363 16.1082 30.9616 16.0602 30.9616 16.0602C30.9616 16.0602 31.1168 16.0016 31.1897 15.8803C31.0099 15.9047 30.8646 15.9629 30.4713 15.9533C30.0732 15.9434 30.0294 15.929 29.8112 15.9629C29.5929 15.9968 29.3312 16.0941 29.2336 15.7591C29.1267 15.6765 28.8985 15.7495 28.7043 16.0355C28.51 16.3216 28.4422 16.5501 28.0684 16.6618C28.0422 16.8265 27.9845 16.9847 27.8985 17.1277C27.7916 17.3075 27.6217 17.4871 27.3936 17.754C27.0342 18.1764 27.0924 18.8704 26.5196 19.3997C25.942 19.9287 26.6156 17.9335 26.6156 17.9335L27.5379 15.7255L30.1641 13.1575L34.2419 12.881L34.64 14.993L36.6304 15.6775L37.8876 17.5949L37.8883 17.5924Z" fill="#D3AE4D"/>
<path fill-rule="evenodd" clip-rule="evenodd" d="M38.534 18.0583L36.8204 15.5875L35.6214 14.665C35.6214 14.665 34.767 13.0925 34.7087 13.0439C34.6601 13.01 33.8543 12.9226 33.3398 12.8887L33.4358 13.1264C33.5481 13.1629 33.6479 13.2302 33.7238 13.3207C33.9519 13.5827 34.0975 14.0778 33.5782 14.6071C33.782 14.6797 33.8662 14.7031 34.0441 14.6797C33.8646 14.8935 33.4569 15.3498 33.4326 15.7479C33.4083 16.073 33.6121 16.1699 33.6121 16.1699C33.6121 16.1699 33.3014 16.5293 33.287 17.1299C33.4337 16.9645 33.5943 16.8118 33.767 16.6736C34.1263 16.3856 34.6214 16.0618 34.9564 15.8579C34.9518 15.9435 34.9634 16.0291 34.9903 16.1104C34.9903 16.1104 35.6163 15.5959 36.1423 15.824C36.3801 15.9309 36.2732 16.2659 36.2732 16.2659C36.2732 16.2659 36.5986 16.1447 36.8268 16.3728C37.055 16.601 37.3801 17.1882 37.5452 17.4167C37.6178 17.5235 37.8073 17.7274 38.0012 18.0426C38.2662 18.4844 38.4874 18.951 38.6617 19.4359C38.6713 19.2416 38.7103 18.9699 39.0457 18.9699L38.5359 18.0573L38.534 18.0583Z" fill="#CAA13E"/>
<path fill-rule="evenodd" clip-rule="evenodd" d="M12.8448 25.0778C12.8448 25.0778 12.7235 24.7767 12.8448 24.1895C12.9661 23.6023 13.1555 23.3255 13.2186 22.4615C13.2816 21.5975 13.8448 20.5198 13.8448 20.5198L15.4029 19.8113L16.505 20.1121L16.8301 21.5879L15.4368 22.3559C15.4368 22.3559 15.3642 22.681 14.9709 22.9431C14.5776 23.2052 14.0339 23.409 13.903 23.6762C13.8248 23.8399 13.7677 24.0128 13.7331 24.1908C13.7331 24.1908 13.335 24.1082 13.0973 24.3703C12.8448 24.6375 12.8544 24.8753 12.8448 25.0791V25.0778Z" fill="#F4EFC8"/>
<path fill-rule="evenodd" clip-rule="evenodd" d="M15.9904 24.6845C15.9904 24.6845 15.8592 24.7671 15.7623 24.9725C15.6663 24.8173 15.4368 23.8948 15.4272 23.0647C15.4176 22.2346 15.368 22.0288 15.56 21.7428C15.752 21.4567 16.505 21.1552 16.3981 20.64C16.2912 20.1498 15.8445 19.946 15.296 20.0868C14.912 20.1828 14.6263 20.9994 14.2282 21.4071C13.9271 21.7178 13.568 21.6692 13.4711 21.8391C13.3399 22.0672 13.4611 22.2954 13.4224 22.441C13.4125 22.4896 13.2912 22.7517 13.0727 23.0672C12.6311 23.7031 11.8835 24.6013 11.7863 25.4071C11.8202 24.9508 11.7962 24.9412 11.9175 24.4362L11.8445 24.3149L12.3245 22.7421L12.6352 21.4461L13.3296 19.2759L14.5527 17.0577L15.7421 15.7274L16.9799 15.81L17.1255 17.6692L17.8343 21.1597L19.3245 22.9946L16.936 24.602L15.9895 24.6845H15.9904Z" fill="#EBCC73"/>
<path fill-rule="evenodd" clip-rule="evenodd" d="M16.7331 25.3441C16.7331 25.3441 16.5292 25.3928 16.4563 25.354C16.3833 25.3153 16.311 25.2715 16.335 25.2228C16.359 25.1742 16.4902 25.092 16.4902 25.0529C16.4929 25.0176 16.4817 24.9827 16.4591 24.9555C16.4365 24.9283 16.4041 24.911 16.3689 24.9073C16.2572 24.8929 16.2233 24.9655 16.2233 24.9655C16.2233 24.9655 16.1164 24.8833 16.0294 24.8695C16.0809 24.8632 16.1327 24.8599 16.1846 24.8596C16.0505 24.7989 15.9082 24.758 15.7622 24.7383C15.8835 24.6657 16.1216 24.4519 16.2768 24.4519C16.432 24.4519 16.5292 24.4279 16.5049 24.3454C16.4806 24.2628 16.3593 24.1415 16.2284 24.0929C16.2768 24.0347 16.311 23.9473 16.1945 23.7089C16.0729 23.4711 16.1216 23.3108 16.1606 23.2529C16.1945 23.1799 16.3158 23.0491 16.374 22.9665C16.4323 22.8839 16.4809 22.7723 16.5779 22.714C16.6265 22.6801 16.7817 22.618 16.9372 22.5588C17.1072 22.5006 17.248 22.4276 17.3449 22.5006C17.4518 22.5732 17.4032 22.6705 17.4032 22.6705C17.4032 22.6705 17.7382 22.5489 18.039 22.7044C18.3401 22.8497 19.0732 22.9422 19.0732 22.9422L19.336 23.4715L17.598 24.9617L16.8796 25.3211L16.734 25.3451L16.7331 25.3441Z" fill="#E5C66B"/>
<path fill-rule="evenodd" clip-rule="evenodd" d="M19.1458 22.9078C19.1458 22.9078 18.6069 23.2671 18.4856 23.398C18.5582 23.4079 18.6795 23.4566 18.6309 23.5292C18.5726 23.6019 18.2232 23.8543 18.029 24.0924C17.8251 24.3302 17.6309 24.6313 17.563 24.7769C17.4904 24.9078 16.9368 25.2915 16.7477 25.3398C17.1458 25.3398 17.9467 24.8495 18.2475 24.8495C18.2379 24.9951 18.3301 25.1603 18.5 25.1747C18.6699 25.1891 19.1602 25.2815 19.8203 24.8739C20.4805 24.4758 20.2622 24.1795 20.5387 23.9855C21.068 23.6358 21.2814 23.3251 21.5726 23.1311C21.8638 22.9372 22.0146 22.8931 22.0146 22.8931C22.0146 22.8931 22.0242 22.7475 22.1106 22.7622C22.1342 22.7649 22.1567 22.774 22.1755 22.7886C22.1943 22.8031 22.2088 22.8225 22.2174 22.8447C22.2174 22.8447 22.7224 22.4854 23.3694 22.3884C23.3543 22.3817 23.3423 22.3696 23.3355 22.3545C23.3355 22.3545 23.3838 22.3302 23.3938 22.3059C23.3938 22.3059 23.4277 22.2572 23.452 22.2815C23.4763 22.3059 23.5102 22.4854 23.5589 22.5583C23.6658 22.5097 23.8696 22.0534 23.8696 22.0534L24.3602 20.6505V19.3689L23.9762 19.4419L21.0962 20.6649L19.3483 22.4758L19.1445 22.9078H19.1458Z" fill="#E6BD62"/>
<path fill-rule="evenodd" clip-rule="evenodd" d="M27.4368 16.6214C27.5925 16.5836 27.7419 16.523 27.88 16.4416C27.8217 16.5971 27.8217 16.767 27.5692 17.136C27.3168 17.5049 27.3072 17.5584 27.1033 17.9417C26.8995 18.3398 26.8752 18.9126 26.6809 19.1648C26.768 19.1225 26.8614 19.0947 26.9574 19.0825C26.9574 19.0825 26.7635 19.2525 26.6809 19.432C26.5984 19.6115 26.4528 19.9853 26.0937 20.2137C25.7347 20.4422 25.278 20.5875 24.7878 21.1264C24.2972 21.6553 23.7926 22.3254 23.5398 22.5664C23.671 22.3382 23.8505 21.8819 23.8992 21.5811C23.9478 21.2803 23.8892 20.9206 23.9718 20.5229C24.0544 20.1251 24.0544 19.8384 24.4518 19.144C24.8492 18.4496 25.5296 16.0371 25.5296 16.0371L26.9955 15.5712L27.4374 16.6198L27.4368 16.6214Z" fill="#B6933F"/>
<path fill-rule="evenodd" clip-rule="evenodd" d="M26.3786 15.7331C26.3786 15.7331 25.937 16.369 25.8157 16.9322C25.6944 17.4954 25.8058 17.4467 25.7331 17.7235C25.6897 17.8923 25.6897 18.0693 25.7331 18.2381C25.8861 17.9917 26.0955 17.7853 26.344 17.6359C26.7616 17.3837 27.1015 17.2039 27.304 16.9904C27.5079 16.7623 27.6778 16.3885 28.1194 16.1021C27.9399 16.0778 27.6874 15.9952 27.6394 16.0061C27.8192 15.8023 28.3578 15.4915 28.9015 15.1178C29.4403 14.7338 29.4064 14.5789 30.2803 14.1955C29.9939 14.2442 29.8579 14.1712 29.6199 14.1955C29.7159 13.9917 30.0519 13.8944 30.3879 13.5597C30.7239 13.225 30.1744 12.7296 30.1744 12.7296L27.6144 14.2781L26.3767 15.7344L26.3786 15.7331Z" fill="#C49937"/>
<path fill-rule="evenodd" clip-rule="evenodd" d="M19.432 14.5776L19.4902 14.1117L20.2234 12.937L20.9904 10.8739V8.05346L20.9322 6.42242L21.0534 5.35427L21.1456 5.01475L21.2429 4.88354L21.8688 5.20867L22.7331 6.38338L22.8157 8.65058L21.9757 12.2282L19.5776 14.8448L19.432 14.5776Z" fill="#DFC068"/>
<path fill-rule="evenodd" clip-rule="evenodd" d="M21.3399 4.75227C21.3399 4.75227 20.9559 4.76219 20.874 6.35931C20.7921 7.95643 20.7524 8.79611 20.6941 9.58747C20.6359 10.3788 20.5002 10.8591 20.4321 11.3254C20.3639 11.7916 20.3252 12.4271 20.1069 12.8156C20.0109 12.9951 19.8058 13.5583 19.3252 13.9807C18.7863 14.4467 17.9812 14.7721 17.8593 14.7964C17.6455 14.8447 16.5629 14.9516 16.1213 15.1945C15.9661 15.2771 15.6989 15.374 15.403 15.6508C14.8154 16.1798 14.034 17.1263 13.4708 18.2671C12.6068 19.9711 11.7428 24.7817 11.7428 24.7817L11.937 24.4566C11.937 24.4566 11.9614 24.0246 12.3934 23.2671C12.8158 22.51 12.6945 21.6604 13.2817 20.2089C13.5098 19.6556 13.7962 18.9372 14.1457 18.3254C14.6993 17.3302 15.369 16.4758 16.0439 16.0099C17.1457 15.2527 18.3594 15.0876 18.3594 15.0876L19.6653 14.2236C19.6653 14.2236 19.8935 13.782 20.1946 13.2771C20.6167 12.5686 21.1546 11.7772 21.2721 10.6268C21.4519 8.92283 21.0196 7.80635 21.0439 6.79675C21.0682 5.78715 21.0778 5.04443 21.282 4.86459C21.4861 4.68475 21.3402 4.75291 21.3402 4.75291L21.3399 4.75227Z" fill="#A88F33"/>
<path fill-rule="evenodd" clip-rule="evenodd" d="M21.3397 12.3738C21.3397 12.3738 21.9157 10.9562 22.1794 9.69888C22.2281 9.4464 22.325 9.19424 22.3494 8.9904C22.4706 7.80096 22.5046 7.31072 22.3494 6.66016C22.2281 6.18016 21.7621 5.74752 21.5193 5.41216C21.2815 5.0624 21.1698 4.93216 21.2185 4.85856C21.2671 4.78496 21.4562 4.66464 21.6405 4.67904C21.8365 4.68474 22.0292 4.73024 22.207 4.81275C22.3848 4.89527 22.544 5.01309 22.6748 5.15904C23.0486 5.59104 23.3446 7.05728 23.3446 7.05728L23.6559 8.992L24.4473 11.4288L21.3404 12.3757L21.3397 12.3738Z" fill="#C99E3D"/>
<path fill-rule="evenodd" clip-rule="evenodd" d="M26.7524 10.8983C26.7524 10.8983 26.6455 10.9466 26.4516 10.8983C26.4598 10.9775 26.4461 11.0575 26.4118 11.1294C26.3775 11.2014 26.3241 11.2624 26.2573 11.3059C26.0535 11.2234 24.1453 11.3885 24.1453 11.3885C24.1453 11.3885 23.257 11.233 22.9802 10.0583C22.7863 9.27651 23.1258 8.19907 23.0141 7.49027C22.8442 6.44643 22.6064 6.24227 22.5821 5.91747C22.5578 5.59267 22.5335 5.50979 22.5335 5.30595C22.4266 5.28163 22.3636 5.24771 22.257 5.24771C22.2327 5.15171 22.281 5.06787 22.1744 4.89795C22.2327 4.92227 22.6308 4.97091 23.0967 5.41251C23.4807 5.77187 23.4807 5.90275 23.5386 5.97571C23.6112 6.04835 24.1988 6.55171 24.4512 7.05347C24.7037 7.55523 25.194 9.15523 25.3056 9.41731C25.3396 9.52419 25.4125 9.63107 25.5936 9.87363C25.8752 10.2234 26.2877 10.8016 26.7536 10.8976L26.7524 10.8983Z" fill="#B58634"/>
<path fill-rule="evenodd" clip-rule="evenodd" d="M23.6071 6C23.9011 6.47504 24.1653 6.96794 24.3981 7.47584C24.6845 8.12128 24.8544 8.65056 25.2138 9.08256C25.0195 8.51968 24.6749 7.4128 24.4711 7.01952C24.2429 6.60352 23.777 6.15552 23.6071 6.00032V6Z" fill="#A88F33"/>
<path fill-rule="evenodd" clip-rule="evenodd" d="M20.306 13.9808C20.306 13.9808 19.8157 14.1021 18.9031 14.5827C18.602 14.7379 18.3159 14.8688 18.0391 14.9904C17.32 15.3155 16.5488 15.616 15.937 15.7817C15.9856 15.84 16.0096 15.864 16.0096 15.864C16.0096 15.864 16.0096 16.1021 16.1408 16.2377C16.0682 16.3107 15.097 16.9709 15.3837 19.1795C15.5776 19.1069 15.8058 19.0096 15.8397 19.0096C15.8983 19.0195 15.9127 19.1795 15.9853 19.1795C16.058 19.1795 16.296 19.0835 16.5485 18.7571C16.5389 18.8883 16.3933 20.2086 17.1748 21.097C17.3204 20.927 17.6893 20.3638 17.6893 20.3638L17.6989 20.1843C17.6989 20.1843 17.7329 19.5581 17.937 18.9853C18.1412 18.4125 18.5389 17.9901 18.5389 17.9901L20.6161 15.024L20.3053 13.9805L20.306 13.9808Z" fill="#E6C367"/>
<path fill-rule="evenodd" clip-rule="evenodd" d="M18.3641 18.3361C18.269 18.4033 18.1642 18.4557 18.0534 18.4913C18.0195 18.37 17.9708 17.9524 18.2572 17.5448C18.5923 17.0542 19.3251 16.4184 19.5289 15.9128C19.6601 15.5873 19.6019 14.772 20.767 13.7281C21.9321 12.6843 22.3881 12.3252 22.3881 12.3252L24.2716 11.3787L26.5871 12.2913L25.4367 16.8001L24.5436 18.9121L20.9916 18.2424L18.3638 18.3361H18.3641Z" fill="#DCBA5A"/>
<path fill-rule="evenodd" clip-rule="evenodd" d="M19.72 17.1117L20.1619 16.5584V16.1651C20.1619 16.1651 20.6521 16.0339 21.1811 15.4951C21.7101 14.9562 22.4432 13.9223 23.0889 13.9853C23.7347 14.0583 23.7977 15.3882 23.8221 15.7623C23.8464 16.1363 23.9289 16.9853 24.0598 17.4419C24.2054 17.8983 22.487 19.6263 22.487 19.6263L21.32 20.5146L19.72 17.1117Z" fill="#E9CE77"/>
<path fill-rule="evenodd" clip-rule="evenodd" d="M21.0873 21.7184C21.0873 21.7184 21.4466 21.1552 21.1833 21.0339C21.3385 20.6845 21.6249 20.3155 21.6249 20.3155C21.6249 20.3155 21.8287 19.8109 22.4889 19.1894C23.149 18.568 23.557 18.1552 23.6639 17.7379C23.7298 17.466 23.7656 17.1876 23.7708 16.9078C23.8422 16.9661 23.9185 17.0181 23.9989 17.063C24.1058 17.1117 24.6105 17.529 24.5378 18.369C24.4652 19.209 24.1538 19.5584 24.1538 19.5584C24.1538 19.5584 23.853 19.8592 23.6396 20.0147C23.4111 20.1699 23.3289 20.3494 22.9452 20.3642C22.9846 20.3328 23.0289 20.3082 23.0764 20.2912C23.0764 20.2912 22.6783 20.2429 22.4646 20.4368C22.2508 20.6307 21.7964 21.2282 21.5682 21.408C21.3401 21.5536 21.0882 21.7187 21.0882 21.7187L21.0873 21.7184Z" fill="#CDAE50"/>
<path fill-rule="evenodd" clip-rule="evenodd" d="M37.2281 12.2766C36.6546 12.0676 36.0519 11.9497 35.4419 11.9272C34.4224 11.8932 32.9321 11.9515 31.471 11.9611C29.8982 11.9707 28.471 11.4222 26.4906 11.3252C26.1654 11.131 25.3386 10.2814 22.7574 12.0824C22.9126 12.0728 24.6314 11.6843 25.2282 12.4321C25.8301 13.1748 25.6602 14.4369 25.5779 14.7377C25.4224 15.4078 24.9174 16.3835 24.7139 17.068C24.5104 17.7525 24.5584 18.1121 24.4128 18.5921C24.2672 19.0721 23.9469 19.3105 24.136 19.8638C24.3885 19.7086 24.52 19.7086 24.9418 18.7621C25.3635 17.8155 25.2768 17.1406 25.976 16.3396C26.6605 15.5339 27.8 14.4318 28.2333 14.155C28.6666 13.8782 32.1069 12.092 35.7091 13.796C36.5779 13.7038 37.2284 12.2763 37.2284 12.2763L37.2281 12.2766Z" fill="#D2A83E"/>
<path fill-rule="evenodd" clip-rule="evenodd" d="M24.2086 11.6159C24.2051 11.5795 24.197 11.5436 24.1846 11.5091C24.1509 11.4381 24.1067 11.3726 24.0534 11.3148C24.0534 11.3148 23.199 11.1596 22.767 11.2079C22.0096 11.2905 21.3251 12.2275 21.0048 12.7081C20.6845 13.1887 20.2864 13.9311 19.8544 14.3148C19.8591 14.2774 19.8505 14.2396 19.8301 14.2079C19.8301 14.2079 19.8544 14.2419 19.8061 14.2905C19.7577 14.3391 19.7574 14.3631 19.7817 14.3865L19.8547 14.4591C19.8787 14.4591 20.5488 14.158 21.4614 13.3071C22.4323 12.4188 23.175 11.9631 23.5635 11.807C23.7707 11.7189 23.9872 11.6548 24.2089 11.6159V11.6159H24.2086Z" fill="#C29637"/>
<path fill-rule="evenodd" clip-rule="evenodd" d="M40.7817 7.96606C40.7817 7.96606 40.6262 8.15998 40.432 8.37374C40 8.83007 39.4368 9.34431 38.9561 9.87359C38.5001 10.3785 37.9856 10.7718 37.4077 11.432C36.8297 12.0922 36.1597 12.825 35.9901 13.0387C35.8349 13.2525 35.7136 13.6019 35.7136 13.7814C35.631 13.7232 35.5341 13.6602 35.5341 13.6602C35.5749 13.7364 35.6237 13.808 35.6797 13.8739C35.8009 14.0438 35.9901 14.2579 36.0873 14.3885C36.2067 14.5547 36.2924 14.7426 36.3395 14.9418C36.3977 14.9514 36.7715 15.0243 37.2377 14.2573C37.704 13.4902 38.3152 12.6506 38.3152 12.6506L39.2861 11.2086L39.8979 9.98559L40.6659 8.61662L40.7827 7.96606H40.7817Z" fill="#AC8132"/>
<path fill-rule="evenodd" clip-rule="evenodd" d="M41.777 6.9856C41.777 6.9856 41.1895 7.4656 40.9614 7.7536C40.7332 8.0416 40.1934 8.79745 40.1934 8.79745L40.3876 8.77313L41.3732 7.89952L41.7572 7.21504L41.7767 6.98688L41.777 6.9856Z" fill="#A88F33"/>
<path fill-rule="evenodd" clip-rule="evenodd" d="M41.597 45.5632C41.597 45.5632 41.5874 45.1651 41.8108 44.9274C42.039 44.6893 42.6166 44.3399 43.1798 43.0291C43.743 41.7184 43.8057 41.4224 43.8057 41.4224C43.8057 41.4224 42.7961 42.2864 42.1737 42.4903C42.3193 42.1891 42.4018 41.9757 42.4748 41.8202C42.3922 41.7475 42.0428 41.665 42.0089 41.6263C42.2028 41.432 42.3097 40.9562 42.703 40.6407C43.2079 40.2567 44.1302 39.5968 44.847 39.0087C45.5638 38.4205 46.973 37.0525 47.1529 36.6544C47.2598 36.8096 47.2838 36.9066 47.2838 36.9066C47.2838 36.9066 46.5753 37.8291 46.2063 38.4163C45.8809 38.9213 45.9052 39.2077 45.9052 39.2077L46.5753 38.9197C46.5753 38.9197 46.7692 39.6381 45.8908 40.7306C46.2748 40.585 46.4297 40.6723 46.6479 40.5507C46.2886 40.7792 45.7935 41.0899 45.3276 41.944C44.8713 42.7984 44.2498 43.7936 43.2015 44.4147C42.182 45.0701 41.5945 45.5603 41.5945 45.5603L41.597 45.5632Z" fill="#A67A2E"/>
<path fill-rule="evenodd" clip-rule="evenodd" d="M38.9661 12.7818C38.9661 12.7818 38.568 13.6115 38.5097 14.2573C38.5001 14.4128 38.4611 14.5341 38.4611 14.7136C38.4515 15.2912 38.495 15.937 38.3651 16.2378C38.3165 16.1165 38.2921 16.0339 38.2435 15.9856C38.1709 16.1894 38.0397 16.8253 37.9328 17.063C37.8845 16.9078 37.7776 16.369 37.7875 15.7331C37.7974 15.0973 37.8115 14.9757 37.8115 14.8448C37.7875 15.0387 37.6563 15.3011 37.6077 15.4563C37.535 15.3254 37.4525 15.1555 37.3552 15.0147C37.297 15.1107 37.2243 15.2525 37.1613 15.3254C37.1514 15.2672 37.1274 15.1117 37.1126 14.8934C37.103 14.641 37.0883 14.3158 37.103 14.2477C37.127 14.1168 37.3312 13.6022 37.7632 13.1312C38.2777 12.568 38.807 11.4858 38.9622 11.1507C39.1174 10.8157 39.7776 9.42273 39.7776 9.42273H40.2825L39.5494 11.0925C39.5494 11.0925 39.1078 12.0051 38.8797 12.3405C38.6515 12.6758 38.1709 13.6368 37.9571 14.0106C38.1123 13.8067 38.2435 13.6998 38.399 13.5056C38.5494 13.3696 38.9667 12.7824 38.9667 12.7824L38.9661 12.7818Z" fill="#8C6228"/>
<path fill-rule="evenodd" clip-rule="evenodd" d="M41.7866 6.92212C41.7041 7.17598 41.5738 7.4117 41.4026 7.61652C41.1015 7.97588 40.4557 8.4562 40.1405 8.83956C39.8525 9.21332 39.2765 10.2328 39.5383 11.4415C39.6343 11.1794 39.8151 10.66 40.2957 10.0725C40.7764 9.485 41.2909 8.81044 41.5437 8.28628C41.7959 7.757 41.8298 7.33972 41.8298 7.33972L41.9258 7.21844L41.8676 6.94164L41.785 6.92212H41.7866Z" fill="#CBA94C"/>
<path fill-rule="evenodd" clip-rule="evenodd" d="M51.6166 39.1213C51.6166 39.1213 51.4224 38.5923 51.3641 38.1117C51.3059 37.631 51.4601 37.5357 51.2816 36.9856C51.1747 36.6505 50.9808 36.6976 50.9321 36.6505C50.8835 36.6035 50.8496 36.0973 50.8592 35.8205C50.8688 35.5437 50.8496 35.1846 50.8009 35.0291C50.7283 34.9709 50.6797 34.9222 50.5728 34.5632C50.4515 34.2038 50.3933 34.0243 50.335 33.9177C50.2768 33.8112 50.1065 33.7139 50.1065 33.607C50.1065 33.3933 50.3008 33.2819 50.3008 33.223C50.2912 33.1017 50.1456 33.199 50.1065 33.1648C50.0582 33.1065 50.2281 32.7571 50.1651 32.7085C50.1408 32.6845 49.9709 32.8883 49.927 32.8301C49.8784 32.7715 49.8201 32.1939 49.7328 31.8105C49.6505 31.4368 49.5629 31.1651 49.5533 31.0534C49.5437 30.9465 48.8832 29.063 48.7232 28.6067C48.5942 28.2211 48.4857 27.829 48.3981 27.432C48.3494 27.2038 48.3155 26.7376 48.2912 26.7862C48.2669 26.8349 48.2816 27.0726 48.2425 27.063C48.2086 27.0531 48.0873 26.2233 48.0486 26.0921C48.0147 25.9609 47.8105 25.5161 47.7606 25.1942C47.712 24.8688 47.6054 24.0192 47.5325 23.4416C47.4595 22.864 47.4256 22.6262 47.4256 22.4816C47.4375 22.1278 47.418 21.7737 47.3673 21.4233C47.2713 20.8115 47.0793 20.0688 46.911 19.6371C46.5859 18.8214 45.7216 16.7341 45.567 16.2147C45.567 16.0835 45.7369 16.1565 45.7369 16.1565C45.7369 16.1565 46.159 17.2147 46.4697 18.0301C46.7709 18.8457 47.0573 19.5641 47.1302 19.6371C47.1885 19.7097 47.6448 20.5107 47.8486 21.8214C48.0525 23.1321 48.1251 24.3408 48.2467 25.1465C48.3049 25.5305 48.3536 25.9379 48.4749 26.3456C48.6057 26.7875 48.8096 27.2438 49.0768 27.9427C49.3049 28.5302 49.4749 29.0205 49.567 29.4429C49.6739 29.9817 49.6739 30.3894 49.7369 30.6566C49.7955 30.8848 49.8825 31.3408 50.0867 32.0006C50.2909 32.6605 50.5913 33.5104 50.7952 34.0393C51.1936 35.0976 51.3712 35.9811 51.4313 36.4521C51.4845 36.9376 51.6643 38.6173 51.6157 39.1219L51.6166 39.1213Z" fill="#A88F33"/>
<path fill-rule="evenodd" clip-rule="evenodd" d="M41.8108 6.86404L41.7865 6.92228C41.7865 6.92228 41.8592 6.9466 41.8448 7.04388C41.8458 7.17697 41.8377 7.30998 41.8204 7.44196C41.7964 7.61188 41.7478 7.74276 41.7382 7.84964C41.7382 8.0778 41.7721 8.33988 41.4502 8.99044C41.3542 9.16996 41.295 9.32516 41.2464 9.43204C41.1251 9.69412 41.1008 9.73316 40.9939 9.85444C41.1638 9.75844 41.7756 9.37444 42.086 9.43204C41.8726 9.55332 41.5472 9.7914 41.3433 10.1021C41.392 10.1117 41.5958 10.1508 41.9193 10.1021C42.4582 10.0196 43.0601 9.82532 43.5891 9.86404C44.167 9.89796 43.9388 9.16996 43.9388 9.16996L43.272 7.70404L42.0099 6.81604L41.8108 6.86436V6.86404Z" fill="#BE9C44"/>
<path fill-rule="evenodd" clip-rule="evenodd" d="M45.1021 17.8448C45.1021 17.8448 44.5389 17.2816 44.3107 15.3488C44.0826 13.4071 44.1312 10.5488 44.1312 10.5488L43.6749 9.43237C43.6749 9.43237 43.5789 8.68965 43.3398 8.41317C43.1008 8.13669 42.6314 7.67045 42.4176 7.44229C42.2038 7.21413 41.9613 6.90341 41.8157 6.85477C41.8883 6.73349 42.2138 6.04901 43.4611 6.03941C44.7085 6.02981 45.0931 6.72389 45.2234 6.97637C45.3536 7.22885 45.9418 8.32037 46.16 10.4004C46.3638 12.4778 46.3738 12.6333 46.3398 13.3517C46.3155 13.7498 46.1843 14.672 45.9558 15.6573C45.7472 16.4925 45.519 17.4247 45.1014 17.8468L45.1021 17.8448Z" fill="#A17C34"/>
<path fill-rule="evenodd" clip-rule="evenodd" d="M43.3359 19.5002C43.5236 19.5137 43.7111 19.4714 43.8748 19.3786C44.0543 19.369 44.7049 19.4515 45.2048 18.8157C45.2387 18.961 45.3264 19.3546 45.0979 19.704C45.2195 19.5824 45.399 19.5341 45.4233 19.5002C45.4329 19.6797 45.6028 20.233 44.8844 21.5776C45.0784 21.3641 45.3065 21.3737 45.5104 21.3494C45.5203 21.6019 45.656 22.4512 45.2969 22.9078C45.0592 23.2185 44.6707 23.1213 44.6707 23.1213C44.6764 23.0534 44.6764 22.9853 44.6707 22.9174C44.6611 22.7862 44.6124 22.6553 44.6467 22.568C44.459 22.4822 44.288 22.3638 44.1417 22.2182C43.7193 21.8201 43.1708 21.1408 43.1321 20.6358C43.0834 20.0726 43.5884 19.9514 43.5884 19.9514C43.5461 19.9135 43.51 19.8692 43.4815 19.8202C43.4572 19.7379 43.4329 19.6067 43.3359 19.5002V19.5002Z" fill="#8C6228"/>
<path fill-rule="evenodd" clip-rule="evenodd" d="M39.592 13.3932C39.592 13.3932 39.5676 13.3593 39.4368 13.5145C39.4611 13.3593 39.4854 13.2133 39.495 13.0725C39.557 12.9422 39.6371 12.8213 39.7331 12.7135C39.6601 12.8588 39.6115 12.99 39.6115 12.99C39.6115 12.99 39.7913 12.6549 40.0534 12.4511C40.2329 12.3055 40.4611 12.2377 40.558 12.1017C40.6649 11.9561 40.6406 11.9317 40.6649 11.9074C40.6649 11.9074 40.903 11.7522 41.2672 11.2956C41.3155 11.2373 41.3884 11.1743 41.4371 11.1161C41.5193 11.0821 41.7136 10.9948 41.9417 10.878C42.1798 10.7471 42.4467 10.5676 42.6118 10.494C42.9369 10.3484 43.2819 10.3631 43.4419 10.1346C43.5631 10.1007 43.694 9.73655 43.67 9.42615C43.8495 9.49879 44.7718 10.0716 45.0876 11.3241C45.3158 12.2124 44.9078 13.5813 44.7379 14.2418C44.5679 14.9023 44.5439 15.3922 44.3059 15.693C44.0047 16.0914 43.0342 16.653 42.7961 16.9311C42.5923 17.1593 41.9808 17.7369 42.0048 18.1541C42.0291 18.4649 42.4124 18.6341 42.4953 18.693C42.5782 18.7519 42.5775 18.8242 42.7331 18.789C42.8886 18.7538 42.9465 18.6821 43.0099 18.6821C43.0825 18.6917 43.0825 18.7065 43.1164 18.7065C43.141 18.7057 43.1655 18.7024 43.1894 18.6965C43.1894 18.6965 43.1651 19.1385 42.1311 19.2725C42.0582 19.2825 41.9856 19.3065 41.8931 19.3212C42.0147 19.2629 42.0873 19.2629 42.2185 19.0834C42.0729 19.0591 41.6553 19.0348 41.5484 19.0009C41.5824 18.9426 41.694 18.7871 41.7862 18.7145C41.8687 18.6418 41.7766 18.6185 41.704 18.6562C41.5789 18.7413 41.4589 18.8336 41.3446 18.9327C41.2233 19.0396 41.1164 19.1852 40.9222 19.3167C40.864 19.1225 40.8736 18.7535 41.102 18.4866C41.0435 18.4962 40.9318 18.6661 40.8252 18.6322C40.806 18.4552 40.8174 18.2761 40.8592 18.1029C40.9174 17.8844 41.2329 17.501 41.2329 17.501L42.7571 14.7775L43.0822 12.7145L39.592 13.3925V13.3932Z" fill="#92723A"/>
<path fill-rule="evenodd" clip-rule="evenodd" d="M39.5098 13.5097C39.5098 13.5097 39.4273 13.5679 39.5924 13.6796C39.5681 13.7135 39.5098 13.8348 39.4369 13.9174C39.3546 14.0134 39.2669 14.0729 39.233 14.1554C39.1604 14.3254 39.1021 14.4418 39.1021 14.5148C39.1021 14.5878 39.0778 15.0537 38.874 15.3545C38.801 15.4614 38.7184 15.6409 38.6602 15.7622C38.5389 15.9756 38.432 16.1462 38.4077 16.2422C38.3594 16.4121 38.3255 16.878 38.3255 16.878C38.3255 16.878 38.4324 16.7468 38.4711 16.6985C38.4125 16.8198 38.3495 16.9506 38.2573 17.0479C38.3156 16.9993 38.4855 16.878 38.7719 16.6255C39.17 16.2908 39.7914 15.7276 40.5489 15.2815C40.3204 15.3641 40.1265 15.3641 39.9713 15.3884C40.0925 15.2671 41.1847 13.9855 41.7575 13.8642C41.7923 13.8201 41.8096 13.7648 41.8062 13.7087L41.3156 13.6604L40.3204 13.8738L40.1751 13.1058L39.5098 13.5087V13.5097Z" fill="#B18E3E"/>
<path fill-rule="evenodd" clip-rule="evenodd" d="M41.0925 17.8787C41.0925 17.8787 40.9613 18.0096 40.8401 18.3351C40.7467 18.2376 40.6666 18.1281 40.602 18.0096C40.4225 17.7088 40.146 17.3251 39.5002 17.5437C39.4906 17.3399 39.4759 17.233 39.5002 17.0874C39.6071 17.0634 39.9322 16.8013 40.2573 16.4176C40.4858 16.1555 40.6993 15.8544 40.8449 15.4711C40.9409 15.3981 41.1069 15.2768 41.3249 15.136C41.6356 14.9226 42.0093 14.6311 42.0676 14.3059C41.922 14.3642 41.6113 14.5098 41.145 14.4858C41.3249 14.4032 41.6013 14.3159 41.5674 13.9565C41.6404 13.9079 41.6986 13.8739 41.6986 13.8739C41.6439 13.8557 41.5863 13.8475 41.5287 13.8496C41.5188 13.8157 41.5044 13.7674 41.4218 13.7914C41.3393 13.8154 41.3258 13.8157 41.3149 13.8496C41.281 13.8595 41.1693 13.8496 41.0868 13.9082C41.0042 13.9667 40.7761 14.1603 40.6887 14.1943C40.7226 14.136 40.7709 14.049 40.7709 14.049C40.7709 14.049 40.5332 14.073 40.3633 14.145C40.0525 14.2519 39.6935 14.4461 39.3293 14.6352C39.3633 14.577 39.378 14.5392 39.402 14.5283C39.426 14.5175 39.4845 14.5043 39.4845 14.4944C39.4845 14.4845 39.4605 14.3984 39.4749 14.3635C39.5838 14.1329 39.7123 13.912 39.8589 13.7034C40.0289 13.4749 40.0628 13.1498 40.0628 13.1498L40.8055 12.776L42.8929 12.296L44.2474 12.3786L44.0775 13.3155L43.2775 14.9514L42.593 16.4416L41.8113 17.3546L41.0929 17.8787H41.0925Z" fill="#543E26"/>
<path fill-rule="evenodd" clip-rule="evenodd" d="M44.4758 13.824C44.4758 13.824 43.6601 14.8336 43.4319 14.9891C43.5775 14.6784 44.4758 12.8288 44.8009 12.3142C44.7282 12.256 44.631 12.256 44.8591 11.3542C44.6652 11.8102 44.597 12.0483 44.437 12.1696C44.277 12.2909 44.2572 12.2522 44.149 12.2522C44.1695 12.2152 44.1779 12.1728 44.173 12.1309C44.173 12.1309 43.4886 12.0483 43.0211 12.0483C42.5535 12.0483 41.6281 12.3008 41.1132 12.5046C40.7056 12.6746 40.4774 12.6746 40.3318 12.7811C40.1862 12.9024 40.1036 13.0336 40.0307 13.0675C39.9724 13.1014 39.696 13.1888 39.6326 13.281C39.5744 13.377 39.4774 13.4848 39.4774 13.5091C39.4774 13.5334 39.4531 13.5677 39.526 13.543C39.55 13.5334 39.7299 13.4362 39.9337 13.3149C40.2102 13.1597 40.5452 12.9802 40.7881 12.8733C41.4822 12.5965 41.7007 12.6451 42.0111 12.5869C42.3363 12.5286 42.8025 12.3926 43.1129 12.3926C43.4236 12.383 44.0111 12.3926 44.1471 12.417C44.0889 12.4656 44.0402 12.5238 44.0646 12.7277C44.0646 12.7859 44.0159 12.849 43.9686 12.9898C43.8233 13.3878 43.5465 14.048 43.3926 14.383C43.1791 14.839 42.9366 15.2227 42.8166 15.4605C42.6966 15.6982 42.4326 16.3245 42.1711 16.6595C41.9097 16.9946 41.7731 17.1984 41.6911 17.2714C41.6092 17.3443 41.0211 17.776 41.0649 17.9315C41.1718 17.8976 41.8467 17.6435 42.3366 17.0918C42.8265 16.5402 42.9241 16.2035 43.3075 15.9024C43.6908 15.6013 43.9919 15.0966 44.1714 14.6794C44.3218 14.2909 44.2879 14.1696 44.477 13.825L44.4758 13.824Z" fill="#806031"/>
<path fill-rule="evenodd" clip-rule="evenodd" d="M26.8981 21.3593C26.8981 21.3593 26.7912 21.8009 26.5483 22.0194C26.3106 22.2332 25.8882 22.4175 25.8399 22.7769C25.7816 23.1359 26.2623 23.3158 26.2623 23.3158C26.2623 23.3158 25.9999 23.7478 25.9999 24.0729C25.9999 24.4079 25.9903 24.471 26.0242 24.7913C25.9857 24.8161 25.9529 24.8488 25.9282 24.8873C25.9282 24.8873 25.9522 25.198 26.1903 25.3919C26.4283 25.5858 26.6319 25.7026 26.7531 25.654C26.7717 25.6936 26.7879 25.7342 26.8018 25.7756C26.8018 25.7756 26.9816 25.3193 27.1029 24.9212C27.2242 24.5135 27.3311 24.5714 27.3794 24.023C27.4277 23.4745 27.9554 22.5327 27.9554 22.5327L28.3154 21.7279L27.7282 21.2716L26.8981 21.359V21.3593Z" fill="#B6903C"/>
<path fill-rule="evenodd" clip-rule="evenodd" d="M27.9904 22.1504C27.8693 22.2747 27.7575 22.4077 27.656 22.5485C27.5008 22.7622 27.3795 22.9561 27.1514 23.039C26.9232 23.1219 26.7776 23.1213 26.792 23.3498C26.8064 23.5782 27.0202 23.6749 27.1414 23.7913C27.2726 23.9126 27.3795 24.1165 27.3213 24.345C27.3939 24.311 27.5251 24.272 27.6464 24.0099C27.7677 23.7478 28.616 22.1507 28.616 22.1507H27.9904V22.1504Z" fill="#685026"/>
<path fill-rule="evenodd" clip-rule="evenodd" d="M31.336 18.4659C31.336 18.4659 31.4086 18.272 31.336 18.1312C31.263 17.9856 30.8214 17.9369 30.6029 17.7718C30.3747 17.6019 30.0979 17.4838 29.8698 17.5584C29.9037 17.4758 30.0397 17.296 29.928 17.2573C29.8211 17.2233 29.4234 17.4029 29.3165 17.4854C29.2096 17.568 28.9667 17.6649 28.9184 17.7235C28.8701 17.7821 28.7872 17.8934 28.7386 17.8448C28.6899 17.8109 28.6659 17.7235 28.5834 17.7718C28.5008 17.8201 28.1034 18.1456 28.0301 18.335C27.9568 18.5245 27.792 18.9469 27.297 19.4272C26.8019 19.9075 26.5882 20.2185 26.7338 20.3981C26.8794 20.5776 26.9475 20.4467 26.9718 20.6019C26.9905 20.7543 26.9823 20.9087 26.9475 21.0582C26.8893 21.3107 26.7923 21.5485 26.9232 21.5971C27.2582 21.704 27.5837 21.5011 27.6563 21.5632C27.8019 21.6941 27.5738 22.1651 27.9184 22.2573C28.2682 22.3533 28.6128 22.1747 28.6128 22.1747L29.8845 21.4902L31.1078 20.8448L31.7337 19.6067L31.3981 18.5728L31.3341 18.4659H31.336Z" fill="#D4B968"/>
<path fill-rule="evenodd" clip-rule="evenodd" d="M30.136 21.4224C30.136 21.4224 29.9223 21.0973 30.1847 20.8106C30.4471 20.5239 30.8205 20.4029 30.9661 20.2234C30.9384 20.1892 30.9012 20.164 30.8592 20.1508C30.9559 19.9778 31.1033 19.8387 31.2816 19.7524C31.209 19.6797 31.1117 19.6215 31.0051 19.6215C30.7671 19.6215 30.6212 19.7671 30.4029 19.7671C30.1895 19.7671 30.1652 19.6602 30.1652 19.6602C30.1652 19.6602 30.5245 19.6263 30.4903 19.466C30.4564 19.296 30.3943 19.296 30.3943 19.296C30.3943 19.296 31.0883 19.008 31.2096 18.8544C31.3309 18.7008 31.3165 18.5194 31.3408 18.4468C31.4231 18.4468 31.9037 18.1943 32.0979 18.3012C32.2922 18.408 32.1562 18.6992 32.1562 18.6992C32.1562 18.6992 32.744 18.2573 33.0435 17.8241C33.3056 17.8484 33.4275 17.6445 33.6195 17.6445C33.8576 17.6445 34.2314 17.9696 34.304 18.6637C34.3526 19.0618 34.4253 19.29 34.3526 19.994C34.3187 20.392 34.3283 21.242 34.4486 21.6637C34.5309 21.9988 34.7251 21.9648 34.7251 21.9648C34.6953 22.0669 34.6362 22.1581 34.5552 22.2269C34.424 22.3482 34.4096 22.6688 34.424 22.7901C34.4434 22.8788 34.4677 22.9663 34.497 23.0522C34.497 23.0522 34.3418 23.2317 34.3027 23.3533C34.2688 23.4746 34.1088 23.5572 33.992 23.5572C33.8752 23.5572 33.9338 23.5472 33.7786 23.5572C33.6234 23.5671 33.5747 23.5911 33.4775 23.5572C33.3802 23.5232 33.3075 23.4842 33.3466 23.1732C33.3805 22.8624 32.1475 22.1392 32.1475 22.1392L30.1316 21.4208L30.136 21.4224Z" fill="#CCA849"/>
<path fill-rule="evenodd" clip-rule="evenodd" d="M27.8204 24.4902C27.8204 24.4902 28.262 25.0778 30.0777 25.0778C30.9417 25.0778 31.2429 24.9952 31.4217 24.9466C31.616 24.8979 32.344 24.6118 33.0771 23.7475C33.7373 22.9661 33.5917 22.6458 33.5917 22.6458L33.2077 22.5875L31.9597 22.7574L28.2668 24.3302L27.8188 24.4902H27.8204Z" fill="#585136"/>
<path fill-rule="evenodd" clip-rule="evenodd" d="M29.1747 24.6359C29.1747 24.6359 27.6019 24.9856 27.6019 23.9904C27.6019 23.0195 28.5728 22 28.8157 21.8205C29.0682 21.6407 29.6701 21.4365 29.6701 21.4365H31.1216L31.3981 22.1696L31.2768 23.752L29.1747 24.6355V24.6359Z" fill="#252211"/>
<path fill-rule="evenodd" clip-rule="evenodd" d="M30.6263 21.7331C30.6263 21.7331 30.3255 21.4563 29.641 21.8291C28.9566 22.2019 28.403 22.9811 28.369 23.6887C28.3351 24.3146 28.8836 24.7808 29.738 24.8051C30.3738 24.8291 30.7575 24.7565 30.9518 24.7091C30.9031 24.6509 30.6506 24.3354 30.6506 24.3354L30.6266 21.7334L30.6263 21.7331Z" fill="#C3B378"/>
<path fill-rule="evenodd" clip-rule="evenodd" d="M30.3302 21.8881C30.3302 21.8881 30.2576 21.8299 30.0422 21.9463C29.8627 22.0423 29.6006 22.2961 29.3968 22.4756C29.2656 22.5825 29.183 22.6308 29.1088 22.7134C28.8077 23.0727 28.5552 23.6602 28.7011 23.9514C28.847 24.2426 29.3274 24.5777 30.5507 24.3495L30.3267 21.8884L30.3302 21.8881Z" fill="#E6D89C"/>
<path fill-rule="evenodd" clip-rule="evenodd" d="M29.9321 22.4903C29.9321 22.4903 29.7379 22.7914 29.7379 23.272C29.7379 23.7623 30.0147 24.5437 31.0342 24.602C31.8156 24.6506 32.3398 23.4759 32.9078 23.0196C33.3397 22.6701 33.6018 22.6602 33.6018 22.6602C33.6018 22.6602 33.1602 22.1802 31.9807 21.5584C30.8156 20.9322 29.5097 20.8496 28.8009 21.8109C29.1359 21.7866 30.2185 21.5098 30.2185 21.5098L30.7478 21.6797L29.9321 22.4906V22.4903Z" fill="#252211"/>
<path fill-rule="evenodd" clip-rule="evenodd" d="M31.4563 23.126C31.4224 23.0534 31.3981 22.9561 31.5389 22.9321C31.6796 22.9081 31.7427 22.9222 31.7913 23.0281C31.84 23.134 31.8873 23.2224 31.8153 23.2662C31.7427 23.3049 31.5533 23.2662 31.456 23.1254L31.4563 23.126ZM31.2281 22.4416C31.2281 22.4416 31.1795 22.4755 31.2038 22.4077C31.2134 22.3254 31.2768 22.1795 31.432 22.2137C31.5872 22.248 31.5536 22.4176 31.528 22.4662C31.5024 22.5149 31.3728 22.5971 31.2755 22.5622C31.2632 22.5591 31.2518 22.553 31.2422 22.5446C31.2326 22.5363 31.2252 22.5257 31.2204 22.5139C31.2157 22.5021 31.2138 22.4893 31.2149 22.4766C31.216 22.464 31.2201 22.4517 31.2269 22.4409L31.2281 22.4416Z" fill="#6F674D"/>
<path fill-rule="evenodd" clip-rule="evenodd" d="M18.088 22.752C18.088 22.752 18.472 23.04 18.9181 23.0288C19.3597 23.0188 19.9277 22.5628 20.1898 22.2713C20.345 22.1014 20.4778 21.9219 20.6218 21.7811C20.7434 21.6598 20.8256 21.6016 20.8839 21.519C20.9664 21.423 21.0538 21.2425 21.0976 21.184C20.9907 21.2665 20.8355 21.4124 20.6752 21.5094C20.52 21.6054 20.185 21.7859 20.049 21.8345C19.9181 21.8832 18.5587 22.6025 18.5587 22.6025L18.088 22.752Z" fill="#AC924C"/>
<path fill-rule="evenodd" clip-rule="evenodd" d="M18.6748 19.1652C18.6748 19.1652 18.8882 19.0196 19.301 18.9271C19.6991 18.8311 20.5001 18.7572 20.5001 18.7572L21.1602 19.0452L21.4223 20.0404L20.9423 21.0746L20.3308 21.4586L19.6364 20.3422L18.6764 19.1671L18.6748 19.1652Z" fill="#9F8E57"/>
<path fill-rule="evenodd" clip-rule="evenodd" d="M17.8109 20.0534L17.5824 20.224C17.5824 20.224 17.641 20.1171 17.6893 19.792C17.7376 19.4668 17.9904 18.6755 18.3594 18.2192C18.7283 17.7628 18.7187 17.7872 18.7187 17.7872C18.6848 17.7809 18.6499 17.782 18.6164 17.7904C18.5829 17.7987 18.5516 17.8141 18.5245 17.8355C18.5731 17.728 18.8838 17.3439 19.1946 17.1519C19.5053 16.9599 19.6266 16.8995 19.9517 17.0559C20.2768 17.2124 20.3594 17.2937 20.5974 17.2841C20.8355 17.2745 21.039 17.022 21.039 17.022C21.039 17.022 21.0877 17.1772 20.9082 17.5366C20.7286 17.896 20.0198 18.6288 20.0198 18.6288L18.544 19.6384L17.8109 20.0544V20.0534Z" fill="#EAC970"/>
<path fill-rule="evenodd" clip-rule="evenodd" d="M18.9028 19.0438C18.9028 19.0438 19.9709 19.1894 20.2961 18.8886C20.3057 18.9226 20.3447 18.9226 20.3447 18.9469C20.3421 18.9652 20.3335 18.9822 20.3204 18.9952C20.3557 18.9896 20.3914 18.9863 20.4272 18.9856C20.47 18.9983 20.514 19.0065 20.5585 19.0099C20.5943 19.0091 20.63 19.0058 20.6653 19C20.662 19.0241 20.6538 19.0473 20.6412 19.0682C20.6287 19.0891 20.6121 19.1073 20.5924 19.1216C20.641 19.1216 20.6884 19.1312 20.6884 19.1699C20.6884 19.2086 20.698 19.3254 20.6397 19.3498C20.5915 19.3631 20.5401 19.3596 20.4941 19.3398C20.498 19.4317 20.5229 19.5215 20.5671 19.6022C20.6631 19.7818 20.8679 19.9862 21.1431 19.9274C21.1431 19.9274 21.2884 20.2768 20.6769 21.0534C20.5946 21.1603 20.5069 21.3059 20.4004 21.4272C20.3583 21.519 20.3261 21.615 20.3044 21.7136C20.3044 21.7136 21.3386 21.3155 21.6346 20.4077C21.9357 19.495 21.994 18.5971 21.9357 17.7574C21.9258 17.5194 21.8871 17.3498 21.8289 17.2282C21.6833 16.927 21.2753 16.9757 21.1105 17.1456C20.8724 17.3837 20.4743 17.9757 19.921 18.3834C19.3578 18.791 19.3338 18.8634 18.9015 19.0438H18.9028Z" fill="#D7BC6B"/>
<path fill-rule="evenodd" clip-rule="evenodd" d="M17.6215 20.3546C17.6215 20.3546 17.4176 20.4759 17.3108 20.9306C17.2039 21.3965 17.4068 21.9645 17.5242 22.1441C17.6416 22.3236 17.9082 22.8141 18.4612 22.8385C18.598 22.8377 18.7334 22.8097 18.8592 22.7559C19.0523 22.6674 19.2333 22.5548 19.3981 22.4209C19.6362 22.2413 19.8301 22.0861 19.8058 22.0714C19.7476 22.0471 18.3399 20.882 18.3399 20.882L17.8106 20.2913L17.6212 20.3553L17.6215 20.3546Z" fill="#585136"/>
<path fill-rule="evenodd" clip-rule="evenodd" d="M18.952 22.2864C18.952 22.2864 19.2384 22.2624 19.4083 22.1555C19.5782 22.0486 18.4131 20.8934 18.4131 20.8934L18.4956 22.1414L18.952 22.2864Z" fill="#453A25"/>
<path fill-rule="evenodd" clip-rule="evenodd" d="M17.7135 20.2668C17.7135 20.2668 17.5679 20.5436 17.5679 20.6166C17.5436 20.8544 17.6166 21.6019 17.6748 21.8396C17.733 22.0921 18.0486 22.4755 18.4566 22.4755C18.7087 22.4755 19.0585 22.3203 19.0585 22.2816C19.0585 22.2329 18.6991 22.1856 18.6022 22.0048C18.5439 21.9088 18.5196 21.67 18.5062 21.4288C18.4966 21.2736 18.4966 21.1036 18.5548 21.0448C18.686 20.8992 18.71 20.4816 18.71 20.4816L19.1759 19.616H18.5631L17.83 20.0723L17.7135 20.2668Z" fill="#84754B"/>
<path fill-rule="evenodd" clip-rule="evenodd" d="M17.5342 20.5341C17.5342 20.5341 18.0142 19.8983 18.4468 19.7523C18.8795 19.6064 19.0731 19.6941 19.0731 19.6941L18.8206 20.3399L18.4612 20.7379L18.4855 20.9418C18.4855 20.9418 18.427 21.4807 18.7863 21.8544C19.1457 22.2282 19.4126 22.2138 19.5681 22.2138C19.7236 22.2138 20.17 22.0826 20.3982 21.5437C20.602 21.0391 20.7719 20.3917 20.3642 19.7427C19.9658 19.097 19.2622 19.072 19.1262 19.072C18.9902 19.072 17.9223 19.1255 17.5342 20.5331V20.5341Z" fill="#252211"/>
<path fill-rule="evenodd" clip-rule="evenodd" d="M29.8592 22.694C29.6797 22.6114 29.8496 22.1068 30.0292 21.9512C30.2087 21.7957 30.4368 21.6165 30.8352 21.5919C30.9805 21.5823 31.1213 21.6744 31.0973 21.7717C31.0634 21.9512 30.8109 22.2037 30.5828 22.3832C30.2672 22.6309 30.0631 22.7861 29.8592 22.694Z" fill="#F7F7E7"/>
<path fill-rule="evenodd" clip-rule="evenodd" d="M20.1504 19.9416C20.2816 19.932 20.4516 20.0376 20.4855 20.1797C20.5194 20.3349 20.4029 20.6457 20.1504 20.6457C19.9466 20.6457 19.8397 20.3932 19.8397 20.3205C19.842 20.2608 19.8587 20.2025 19.8884 20.1506C19.898 20.1359 19.9223 19.966 20.1504 19.9416V19.9416Z" fill="#F8F6DE"/>
<path fill-rule="evenodd" clip-rule="evenodd" d="M18.2572 20.0535C18.2572 20.0535 17.9222 20.2087 17.767 20.5335C17.6561 20.7733 17.6226 21.0417 17.671 21.3015C17.6953 21.4227 17.8166 21.7235 17.8992 21.8304C17.9817 21.9373 18.0934 22.0102 18.176 22.0003C18.2585 21.9904 18.4281 21.7722 18.4281 21.6413C18.4281 21.5104 18.438 20.9568 18.598 20.6557C18.7388 20.3549 18.2582 20.0538 18.2582 20.0538L18.2572 20.0535Z" fill="#D4C38B"/>
<path fill-rule="evenodd" clip-rule="evenodd" d="M18.306 20.0291C18.2477 20.063 18.1508 20.1117 18.1748 20.1747C18.1991 20.2329 18.4029 20.2707 18.4759 20.4128C18.5584 20.5584 18.5584 20.7136 18.5341 20.7865C18.5975 20.7564 18.6551 20.7152 18.704 20.6649C18.8109 20.5437 18.9418 20.3789 19.0535 20.3789C19.1264 20.3789 19.1991 20.4128 19.2672 20.4128C19.3741 20.4128 19.4807 20.3789 19.4954 20.2672C19.5194 20.1216 19.2916 19.9904 19.1604 20.0147C19.1847 19.9187 19.2186 19.7769 19.1117 19.6797C19.0048 19.5824 18.6701 19.7526 18.5972 19.8013C18.5242 19.8499 18.306 20.0294 18.306 20.0294V20.0291Z" fill="#E2D59D"/>
<path fill-rule="evenodd" clip-rule="evenodd" d="M26.0197 30.2282L26.7381 30.016L26.9419 30.1616C26.9419 30.1616 27.0872 30.4723 27.3157 30.511C27.2427 30.6662 27.0533 30.799 27.0632 30.9091C27.0731 31.0192 27.1701 31.1034 27.1701 31.1034C27.1701 31.1034 26.5243 32.1712 27.7963 33.2474C27.4952 33.3686 27.1118 33.5354 26.908 33.6314C27.0533 33.6653 27.364 33.7274 27.4952 33.8451C27.6264 33.9629 27.6264 34.0003 27.7477 34.0733C27.869 34.1462 27.9416 34.2432 27.9176 34.2867C27.835 34.2381 27.5582 34.0928 27.5099 34.2285C27.4616 34.3642 26.3109 34.311 26.3109 34.311L24.3691 34.6848C24.3691 34.6848 24.4418 34.4906 24.2379 34.311C24.0002 34.0976 23.709 34.3206 23.3982 34.0829C22.9906 33.7722 22.9759 33.4128 22.845 33.2771C22.9759 33.1946 23.2431 33.0733 23.8789 32.9891C23.8546 32.9405 23.772 32.7949 23.8207 32.664C23.8789 32.4941 24.1215 32.3872 24.0488 32.184C24.1557 32.1597 24.204 32.1597 24.4712 31.8246C24.7237 31.4896 24.8789 31.417 25.0731 31.3926C25.2674 31.3683 25.3838 31.3926 25.7432 31.0576C25.9954 30.8198 25.9131 30.616 25.9131 30.616C25.9131 30.616 26.0779 30.5626 26.02 30.2275L26.0197 30.2282Z" fill="#CBAC5A"/>
<path fill-rule="evenodd" clip-rule="evenodd" d="M23.8982 30.336C23.9078 30.2874 23.9469 30.2631 24.2089 30.2874C24.471 30.3117 26.1312 30.1322 26.5827 30.1079C27.039 30.074 28.6457 30.098 29.4275 30.2631C30.2093 30.4282 31.0003 30.6224 31.3837 30.7194C31.7677 30.8263 31.8886 30.8647 31.8739 30.9133C31.8643 30.9619 31.7779 31.0093 31.7283 30.9959C31.68 30.9863 30.408 30.5978 30.015 30.5159C29.6221 30.434 28.2624 30.2148 27.519 30.2279C26.8249 30.2378 26.5481 30.2183 25.9609 30.2861C25.3734 30.3591 24.4025 30.456 24.1113 30.4173C23.8233 30.3834 23.8829 30.3834 23.8976 30.3348L23.8982 30.336Z" fill="#D6BC6F"/>
<path fill-rule="evenodd" clip-rule="evenodd" d="M27.8058 34.1408C27.8058 34.1408 28.801 34.6797 29.1604 35.3399C29.4225 35.8301 29.0052 36.073 29.0052 36.073C29.0052 36.073 29.5684 36.073 29.4954 36.3837C29.4615 36.5776 28.5245 37.1018 27.8983 37.3786C27.2625 37.6554 27.2868 37.641 26.9761 37.6893C26.6749 37.7379 25.8497 37.5933 25.6797 37.8349C25.5098 38.0765 25.5837 38.3255 25.6311 38.3642C25.6797 38.3981 26.073 38.4467 26.073 38.4467C26.073 38.4467 25.9905 38.6749 25.1751 38.6992C24.3597 38.7235 24.1556 38.7815 24.1069 38.8691C24.0583 38.9514 24.2621 38.9031 24.6362 38.9651C25.01 39.0234 25.5341 39.0611 25.5341 39.0611C25.5341 39.0611 25.3642 39.2067 24.9226 39.3232C24.4177 39.4541 23.6263 39.5757 23.3885 39.7213C23.5098 39.8039 23.6897 39.9251 23.7725 39.9347C23.5687 39.9834 23.282 40.0903 23.2337 40.129C23.3063 40.1776 23.4036 40.2359 23.4036 40.2359C23.4036 40.2359 22.9956 40.7261 22.7578 40.8477C22.5201 40.9693 21.1511 41.6048 20.6801 41.4835C19.5053 41.1728 19.3597 39.8864 19.0733 39.7895C18.6413 39.6439 18.4375 39.9347 18.0538 39.7309C18.2237 39.6096 18.3162 39.537 18.4957 39.4544C18.3015 39.3584 17.2967 38.7213 17.2967 38.7213C17.1916 38.4923 17.075 38.2687 16.9473 38.0515C16.753 37.7165 16.4673 37.2698 16.2529 36.8765C15.7869 36.0125 15.7626 35.6144 15.3402 35.1242C15.4132 35.0282 15.6653 35.0416 15.6653 35.0416L19.2045 36.2067L25.4801 36.3885L27.1121 34.0586L27.8061 34.1412L27.8058 34.1408Z" fill="#DFC677"/>
<path fill-rule="evenodd" clip-rule="evenodd" d="M18.5098 37.6941C18.5476 37.7363 18.5918 37.7723 18.6406 37.801C18.7622 37.8836 18.9418 37.9808 19.063 38.1261C19.1117 38.0535 19.233 37.9223 19.447 38.1261C19.6611 38.33 19.927 38.1847 20.0925 38.233C20.2624 38.2916 20.272 38.3156 20.272 38.3156C20.272 38.3156 20.368 38.233 20.5827 38.1456C20.7139 38.097 20.8691 38.0631 21.039 38.0148C21.1942 37.9808 21.3642 37.9322 21.481 37.9322C21.5878 38.0048 21.9712 38.4122 23.5101 37.8109C24.9616 37.2477 25.2963 37.1847 25.5392 37.2717C25.5635 37.2135 25.5878 37.1018 25.9616 37.1165C25.9616 36.9613 25.6509 36.432 25.6509 36.432L23.9373 35.8448H23L20.1894 36.3594L18.632 37.248L18.5107 37.696L18.5098 37.6941Z" fill="#C4A859"/>
<path fill-rule="evenodd" clip-rule="evenodd" d="M17.5729 36.7089C17.5729 36.7089 17.6068 36.9709 17.9953 37.2477C18.3793 37.5242 18.4999 37.6893 18.4999 37.6893C18.4999 37.6893 18.5729 37.5933 18.6311 37.4954C18.6894 37.3885 18.738 37.2673 18.835 37.2333C19.0292 37.1508 19.4708 37.306 19.5681 37.2817C19.6506 37.2577 19.6263 37.0877 19.7137 37.0877C19.9175 37.0778 20.0484 37.2186 20.1214 37.2186C20.1943 37.2186 20.3735 37.209 20.3978 37.1703C20.4222 37.1316 20.4318 36.7284 20.7086 36.5341C21.0097 36.3207 21.3786 36.4129 21.4766 36.4615C21.4766 36.5341 21.4862 36.714 21.6804 36.7236C21.8746 36.7332 21.8938 36.6993 22.0644 36.7575C22.235 36.8157 22.4382 36.7479 22.5303 37.034C22.6129 37.01 22.8071 36.9857 22.7585 36.7089C22.8545 36.6362 22.9383 36.5876 23.1425 36.3012C23.1911 36.2285 23.2734 36.146 23.3367 36.0391C23.5066 36.0391 23.7105 36.0052 23.9822 36.2429C23.8996 36.3012 23.851 36.3389 23.827 36.3981C23.898 36.4685 23.9629 36.5448 24.0209 36.6263C24.0938 36.7223 24.1425 36.8401 24.2346 36.8644C24.4385 36.9226 24.7735 36.8401 25.1473 36.8644C25.5066 36.8887 25.8074 37.0196 25.9386 37.1021C25.9873 37.0781 25.9873 37.0682 26.1086 37.0925C26.2298 37.1169 26.322 37.1265 26.1911 36.9713C26.2638 37.0052 26.3463 37.0781 26.4193 37.0052C26.4922 36.9322 26.5502 36.8257 26.754 36.8013C26.9578 36.777 27.0308 36.8109 27.1134 36.5975C27.2202 36.3354 26.8513 36.3354 26.8513 36.3354C26.8513 36.3354 27.0212 36.1799 27.2106 35.9761C27.4388 35.7626 27.7009 35.4858 27.7639 35.146C27.8708 34.5197 27.2593 34.4375 27.2593 34.4375L24.2932 35.3501L20.667 35.1703L17.5748 36.7092L17.5729 36.7089Z" fill="#927D49"/>
<path fill-rule="evenodd" clip-rule="evenodd" d="M14.9078 28.1408C14.9078 28.1408 14.8118 28.2621 14.7526 28.5485C14.6934 28.8349 14.7187 28.801 14.67 29.0048C14.6214 29.2087 14.0239 31.2378 14.2479 31.9223C14.4719 32.6068 14.8598 32.8593 15.1023 33.4125C15.151 33.5338 15.1983 33.6068 15.2236 33.7137C15.3062 34.0727 15.2335 34.3495 15.3305 34.7089C15.3644 34.8302 15.4521 34.971 15.583 35.1166C15.871 35.4174 16.3404 35.7038 16.543 35.9076C16.8291 36.2087 17.2371 36.8206 17.7564 36.8785C18.0332 36.9124 18.4265 36.7959 18.7516 36.602C19.0396 36.4222 19.2175 36.17 19.5196 36.026C19.7331 35.9191 19.9612 35.8804 20.1651 35.8318C20.5874 35.7492 20.9711 35.7358 21.1993 35.7831C21.5487 35.8561 22.374 36.1086 22.8313 36.1086C23.1886 36.1028 23.5439 36.0539 23.8895 35.963C24.5836 35.7591 25.4233 35.4094 25.9769 35.2541C26.302 35.1581 26.5641 35.1329 26.8313 35.0746C27.2876 34.9677 27.671 34.8222 27.8895 34.5453C27.7439 34.3754 27.5644 34.1133 26.5932 34.1229C25.4914 34.1473 24.2194 34.7588 23.5932 34.8561C22.967 34.9533 22.6953 35.0356 21.9961 34.7831C21.3107 34.5281 21.2879 34.3594 21.2879 34.3594C21.2879 34.3594 20.5683 33.8561 20.2671 32.5729C19.966 31.2896 20.2671 30.3546 21.0489 29.466C21.2527 29.2378 21.2041 29.034 21.2041 29.034C21.2041 29.034 21.7186 28.3399 21.5778 27.6899C21.4226 27.0442 20.4275 27.1754 20.4275 27.1754L14.9081 28.1408H14.9078Z" fill="#6E6342"/>
<path fill-rule="evenodd" clip-rule="evenodd" d="M15.7379 30.3011C15.6951 30.3816 15.6749 30.4722 15.6796 30.5632C15.6892 30.6941 15.7283 30.864 16.1212 31.2477C16.4563 31.5824 16.3833 31.9561 16.3833 31.9561C16.3833 31.9561 16.5519 31.9901 17.0095 31.776C17.3689 31.6061 17.4895 31.9072 17.4895 31.9072C17.5941 31.8523 17.7075 31.8162 17.8246 31.8003C17.9306 31.7905 18.0333 31.7578 18.1254 31.7043C18.1254 31.7043 18.5478 32.1363 18.9167 32.3401C19.2518 32.52 19.446 32.6412 19.6111 32.52C19.7663 32.4131 19.7663 32.1945 19.7564 32.0976C19.7179 32.0081 19.6692 31.9234 19.6111 31.8451C19.5043 31.6899 19.3343 31.5101 19.3231 31.3651C19.2988 31.0304 19.5756 30.632 19.5171 30.5351C19.4585 30.4381 19.2406 30.4138 18.7017 30.608C18.1436 30.7923 15.7356 30.3021 15.7356 30.3021L15.7379 30.3011Z" fill="#39331F"/>
<path fill-rule="evenodd" clip-rule="evenodd" d="M17.0096 32.4711C17.0096 32.4711 16.7331 32.209 16.8301 30.9371C16.9474 30.9353 17.0646 30.9467 17.1795 30.971C17.1795 30.971 17.3302 31.9566 17.0096 32.4711Z" fill="#292311"/>
<path fill-rule="evenodd" clip-rule="evenodd" d="M15.0391 27.1699C15.0776 27.1413 15.1134 27.1092 15.1459 27.0739C15.0499 27.2534 14.6067 27.9718 14.9661 29.103C15.3255 30.2291 16.2282 31.0687 17.3399 31.1078C18.4515 31.1468 19.0359 30.6028 19.704 29.7875C19.9661 29.4623 20.2672 29.0543 20.5341 28.7779C20.9322 28.3455 21.2429 28.2243 21.2429 27.807C21.2429 26.9526 20.369 26.5689 19.0826 26.1856C17.7962 25.8022 16.6359 25.8496 16.0339 26.112C15.4467 26.398 15.1943 26.6992 15.0387 27.1702L15.0391 27.1699Z" fill="#252211"/>
<path fill-rule="evenodd" clip-rule="evenodd" d="M19.1699 32.8544L19.2659 32.8057C19.2659 32.8057 19.2899 32.4217 19.4454 32.432C19.6006 32.4563 19.6736 32.6604 19.6588 32.7331C19.6493 32.8057 19.6105 32.9273 19.455 32.9126C19.2512 32.9174 19.1689 32.8544 19.1689 32.8544H19.1699Z" fill="#3F3824"/>
<path fill-rule="evenodd" clip-rule="evenodd" d="M18.7379 31.2232C18.7379 31.2232 18.8339 31.1893 18.9514 31.3058C19.0474 31.3058 19.4659 31.2572 19.5971 31.3397C19.7283 31.4223 19.767 31.495 19.767 31.495C19.767 31.495 19.2768 31.6019 19.0096 31.495C18.7379 31.4028 18.7379 31.2232 18.7379 31.2232V31.2232Z" fill="#2D2815"/>
<path fill-rule="evenodd" clip-rule="evenodd" d="M20.8983 31.296C20.8983 31.2716 20.6362 31.0921 20.3594 31.0336C20.3108 31.024 20.3009 31.0579 20.2634 31.0579C20.2391 31.0483 20.2295 30.9753 20.2295 30.9753L20.0721 31.0582C20.0721 31.0582 20.0477 31.0921 20.1303 31.1542C20.2029 31.2124 20.3245 31.2611 20.3585 31.358C20.3924 31.455 20.3924 31.4889 20.4071 31.5036C20.4167 31.5132 20.5866 31.5036 20.6692 31.455C20.7517 31.4064 20.9072 31.327 20.8973 31.295L20.8983 31.296Z" fill="#82764F"/>
<path fill-rule="evenodd" clip-rule="evenodd" d="M18.4468 32.2816C18.4468 32.2816 18.4951 31.9469 18.8205 31.9322C19.1553 31.9079 19.2186 32.233 19.2186 32.233L19.0244 32.4272C19.0244 32.4224 18.8788 32.2186 18.4484 32.2816H18.4468Z" fill="#2D2816"/>
<path fill-rule="evenodd" clip-rule="evenodd" d="M20.5584 30.8397C20.5584 30.8397 20.3785 31.034 19.9808 31.0922C19.9469 31.0436 19.8739 30.9466 19.9808 30.7914C20.0877 30.6362 20.2089 30.5875 20.3302 30.6358C20.3837 30.6445 20.4336 30.6683 20.4741 30.7044C20.5145 30.7406 20.5437 30.7875 20.5584 30.8397V30.8397Z" fill="#574F35"/>
<path fill-rule="evenodd" clip-rule="evenodd" d="M21.2912 31.0777C21.3011 31.0291 21.2672 31.0195 21.2912 30.9951C21.3152 30.9708 21.4467 30.9225 21.4711 30.9465C21.4807 30.9564 21.4711 30.9951 21.4711 31.0425C21.4711 31.0899 21.4711 31.1385 21.4467 31.1734C21.4128 31.222 21.3159 31.2463 21.2672 31.2319C21.2186 31.2175 21.209 31.1494 21.209 31.1359C21.233 31.1263 21.2912 31.102 21.2912 31.0777ZM22.12 30.5535C22.12 30.5292 22.2026 30.4806 22.2512 30.4806C22.3239 30.4806 22.3239 30.5388 22.3338 30.5535C22.3578 30.5631 22.3578 30.5436 22.3821 30.5875C22.4064 30.6313 22.4407 30.7087 22.416 30.7574C22.3914 30.806 22.2947 30.8396 22.2707 30.83C22.2368 30.8057 22.1299 30.5875 22.12 30.5535V30.5535Z" fill="#82764F"/>
<path fill-rule="evenodd" clip-rule="evenodd" d="M20.4517 31.1894C20.4517 31.1894 20.5585 31.2134 20.7041 31.335C20.6555 31.3689 20.5825 31.4076 20.5825 31.4076C20.5825 31.4076 20.5729 31.296 20.4517 31.1891V31.1894Z" fill="#6E6342"/>
<path fill-rule="evenodd" clip-rule="evenodd" d="M20.2138 30.1213C20.1895 30.0973 20.2864 30.0391 20.3447 30.0487C20.4029 30.0583 20.4272 30.0973 20.4903 30.1069C20.5533 30.1165 20.5632 30.0826 20.5863 30.0583C20.6093 30.034 20.6932 30.0487 20.7076 30.0583C20.7165 30.069 20.7247 30.0803 20.7319 30.0922C20.7329 30.0738 20.7377 30.0557 20.746 30.0392C20.7543 30.0227 20.766 30.008 20.7802 29.9962C20.7988 29.9825 20.8203 29.9732 20.843 29.969C20.8657 29.9648 20.8891 29.9658 20.9114 29.9719C20.921 30.0058 20.9696 30.1271 20.96 30.1514C20.9504 30.1757 20.8048 30.21 20.7802 30.1853C20.8045 30.2439 20.9114 30.3652 20.9258 30.3892C20.9402 30.4132 20.8189 30.4717 20.7706 30.4621C20.7028 30.4573 20.2852 30.2145 20.2125 30.1223L20.2138 30.1213ZM20.8496 29.3156C20.8407 29.2911 20.8235 29.2705 20.801 29.2573C20.7671 29.2477 20.6554 29.2573 20.6554 29.3156C20.6554 29.3738 20.7514 29.6996 20.8592 29.8692C20.9808 30.0391 21.0631 30.1796 21.1456 30.2186C21.1716 30.2304 21.201 30.232 21.228 30.2229C21.255 30.2139 21.2776 30.195 21.2912 30.17C21.3008 30.1457 21.3252 29.9661 21.3156 29.5437C21.306 29.1213 21.2912 28.7137 21.2669 28.6893C21.2426 28.665 21.1456 28.6653 21.1117 28.7137C21.0778 28.762 20.8592 29.2429 20.8493 29.3156H20.8496Z" fill="#585136"/>
<path fill-rule="evenodd" clip-rule="evenodd" d="M20.4175 31.8009C20.4175 31.8009 20.2476 31.694 20.0825 31.7669C19.9273 31.8399 19.9369 32.1263 19.9369 32.1263C19.9718 32.14 20.0095 32.1449 20.0468 32.1407C20.084 32.1364 20.1197 32.1231 20.1507 32.102C20.2575 32.0293 20.3932 31.9081 20.4175 31.8012V31.8009Z" fill="#574F35"/>
<path fill-rule="evenodd" clip-rule="evenodd" d="M20.7378 32.1846C20.7282 32.0886 20.6418 32.0886 20.6418 32.039C20.6478 32.0153 20.6615 31.9943 20.6809 31.9793C20.7002 31.9643 20.724 31.9563 20.7484 31.9564C20.797 31.9564 20.8444 32.0147 20.9039 32.0524C20.9622 32.0864 21.0495 32.1484 21.0591 32.2224C21.0687 32.2963 20.9631 32.4988 20.8457 32.4988C20.7282 32.4988 20.7631 32.2803 20.7388 32.1833L20.7378 32.1846ZM21.6748 32.0534C21.6748 32.0534 21.4806 32.1116 21.495 32.0534C21.5094 31.9952 21.5535 31.9808 21.6166 31.9808C21.6486 31.9472 21.6917 31.9264 21.7378 31.9222C21.7643 31.9209 21.7902 31.9296 21.8105 31.9465C21.8105 31.9465 21.9417 31.8883 21.9804 31.9222C22.0191 31.9561 21.9903 31.9561 22.0143 31.9952C22.0449 32.0385 22.0649 32.0883 22.0729 32.1408C22.0729 32.1795 21.9273 32.262 21.8105 32.2476C21.6748 32.2185 21.6988 32.0777 21.6748 32.0534V32.0534ZM22.8057 31.8348C22.8057 31.8348 22.8639 31.8688 22.8156 31.9078C22.7817 31.9417 22.6118 32.0038 22.4658 32.0147C22.3202 32.0147 22.1894 32.0387 22.1894 31.9904C22.1894 31.942 22.3106 31.8448 22.3833 31.8204C22.3979 31.8022 22.4164 31.7875 22.4374 31.7774C22.4585 31.7673 22.4815 31.7621 22.5049 31.7622C22.5631 31.7622 22.791 31.7379 22.8543 31.7283C22.9126 31.7184 22.9612 31.7523 22.927 31.8009C22.9126 31.8348 22.8057 31.8348 22.8057 31.8348V31.8348ZM23.1407 30.3359C23.1407 30.3359 23.0678 30.4911 22.9855 30.4911C22.903 30.4815 22.903 30.4572 22.903 30.4329C22.903 30.399 22.9855 30.3116 22.9756 30.2873C22.9516 30.2873 22.893 30.2873 22.903 30.2291C22.903 30.1804 22.9855 30.1222 23.0582 30.1331C23.1131 30.088 23.1814 30.0624 23.2524 30.0604C23.335 30.0604 23.4076 30.0844 23.4076 30.1331C23.4076 30.1817 23.3116 30.2883 23.2764 30.3129C23.2377 30.3516 23.189 30.3769 23.1407 30.3369V30.3359ZM22.0338 33.2048C22.0338 33.2048 21.9378 33.2147 21.9378 33.263C21.9378 33.2873 21.9618 33.2873 21.9961 33.2729C22.0158 33.2718 22.0353 33.2685 22.0543 33.263C22.0639 33.2729 22.0639 33.3213 22.1369 33.3213C22.1968 33.3132 22.2545 33.2934 22.3068 33.263C22.365 33.239 22.4137 33.2144 22.4137 33.167C22.3894 33.0845 22.3407 33.0454 22.2681 33.0454C22.2309 33.0431 22.1937 33.0515 22.1612 33.0697C22.1612 33.0697 22.1369 33.0211 22.0543 33.0697C21.9718 33.1184 21.9814 33.1184 22.0057 33.1427C22.0492 33.1814 22.0348 33.2067 22.0348 33.2067L22.0338 33.2048ZM21.4854 33.7097C21.4854 33.6854 21.6066 33.6368 21.6406 33.6515C21.6745 33.6611 21.7714 33.8454 21.7714 33.8649C21.7714 33.8893 21.6502 33.9475 21.6015 33.9475C21.5529 33.9475 21.4706 33.8649 21.4706 33.8515C21.4706 33.8419 21.5289 33.8275 21.5289 33.8176C21.5433 33.7936 21.4854 33.735 21.4854 33.7107V33.7097ZM21.1014 33.0009C21.1257 32.9913 21.1257 32.967 21.1596 32.9427C21.1702 32.9356 21.1823 32.9311 21.195 32.9294C21.2076 32.9278 21.2205 32.929 21.2326 32.9331C21.2411 32.9178 21.253 32.9046 21.2673 32.8945C21.2815 32.8844 21.2979 32.8776 21.3151 32.8745C21.3734 32.8649 21.422 32.8745 21.4111 32.8988C21.4111 32.9718 21.4598 33.0201 21.4598 33.0784C21.4598 33.1366 21.4258 33.2096 21.3046 33.2582C21.1833 33.2921 21.0182 33.2921 20.9938 33.2825C20.9695 33.2729 20.9452 33.1757 20.9695 33.127C20.9938 33.0784 21.0617 33.0253 21.1007 33.0009H21.1014Z" fill="#82764F"/>
<path fill-rule="evenodd" clip-rule="evenodd" d="M21.256 33.0339C21.256 33.0339 21.1735 33.0826 21.1735 33.1069C21.1661 33.1304 21.1629 33.1549 21.1639 33.1795C21.1639 33.1939 21.2708 33.1699 21.2852 33.1552C21.29 33.1456 21.256 33.0592 21.256 33.0339Z" fill="#6E6342"/>
<path fill-rule="evenodd" clip-rule="evenodd" d="M20.5341 32.8058C20.5824 32.8157 20.665 32.8058 20.728 32.8301C20.7766 32.8544 20.8106 32.903 20.7619 32.9613C20.7133 33.0195 20.6659 33.1069 20.5581 33.0921C20.4368 33.0825 20.3203 33.0195 20.3203 32.9709C20.3183 32.9401 20.3224 32.9092 20.3324 32.8801C20.3424 32.8509 20.3581 32.824 20.3786 32.801C20.4272 32.7623 20.4512 32.7866 20.5338 32.8058H20.5341Z" fill="#585136"/>
<path fill-rule="evenodd" clip-rule="evenodd" d="M20.4757 32.8544C20.4757 32.8544 20.3205 32.9756 20.2815 33.0342C20.2329 33.0924 19.9951 33.3933 19.9225 33.4563C19.9466 33.4137 19.9741 33.3732 20.0047 33.335C19.9087 33.3964 19.8367 33.4889 19.8009 33.5971C19.7426 33.7769 20.1263 33.8739 20.3785 33.9469C20.6306 34.0198 20.7282 34.0429 20.7282 34.0429C20.6354 33.9033 20.5557 33.7555 20.4901 33.6013C20.3941 33.3731 20.3445 33.3488 20.4076 33.2419C20.4562 33.135 20.5292 33.0624 20.5292 32.9798C20.5001 32.903 20.4757 32.8544 20.4757 32.8544Z" fill="#574F35"/>
<path fill-rule="evenodd" clip-rule="evenodd" d="M14.9418 33.2381C14.9771 33.2446 15.0134 33.2446 15.0487 33.2381C15.1213 33.2282 15.8788 32.9501 16.6701 33C17.2625 33.0358 17.8497 33.1323 18.4224 33.288C19.4176 33.5501 20.6554 34.0695 21.4564 34.3658C21.6698 34.448 21.8788 34.594 22.0324 34.6519C22.6442 34.89 22.6682 34.89 23.0276 34.953C23.45 35.0112 23.882 34.8704 24.3335 34.7735C24.8868 34.6519 25.8333 34.5936 26.6634 34.4724C26.9318 34.4351 27.1966 34.3751 27.4548 34.2928C27.4548 34.2928 26.7946 34.953 25.2119 35.1908C24.5722 35.2879 23.922 35.2961 23.2801 35.2151C22.7751 35.1664 22.4404 35.0935 22.1879 35.0208C21.9015 34.9383 21.314 34.7197 20.5908 34.5408C20.0858 34.4096 19.5226 34.3127 18.8772 34.1914C17.2848 33.8999 15.5568 33.5651 14.9412 33.24L14.9418 33.2381Z" fill="#252211"/>
<path fill-rule="evenodd" clip-rule="evenodd" d="M13.1552 30.2382C12.7712 30.5633 12.3639 30.874 11.9661 31.1748L10.7671 32.0961C10.3594 32.3969 9.9613 32.7076 9.5533 33.0087C9.1453 33.3098 8.73794 33.5959 8.3053 33.8727C8.6893 33.5476 9.09666 33.2465 9.50434 32.9505C9.91202 32.6545 10.3347 32.3642 10.728 32.0641L11.9271 31.1415C12.3395 30.8407 12.7376 30.53 13.1552 30.2388V30.2382ZM11.0339 33.6362C11.0339 33.6362 11.4659 33.2769 12.0048 32.7722C12.6746 32.1463 13.495 31.345 13.7571 31.1998L11.0336 33.6366L11.0339 33.6362Z" fill="#CFB66C"/>
<path fill-rule="evenodd" clip-rule="evenodd" d="M11.0338 33.6358C11.2476 33.4223 11.4757 33.2137 11.7039 33.0095L12.0533 32.7087C12.1602 32.6127 12.2818 32.5049 12.3884 32.398C12.6018 32.1846 12.8108 31.9561 13.0242 31.7379C13.13 31.6281 13.2419 31.5244 13.3593 31.4272C13.4179 31.3752 13.4831 31.3311 13.5532 31.296C13.6117 31.262 13.6748 31.2 13.757 31.1891C13.7087 31.262 13.6505 31.296 13.6018 31.359C13.5436 31.4076 13.4949 31.4659 13.4466 31.5142C13.3397 31.6211 13.2185 31.718 13.1116 31.8153C12.8834 32.0096 12.6457 32.1993 12.4175 32.4025C12.1893 32.6057 11.9759 32.8249 11.7474 33.0287C11.5001 33.2377 11.2719 33.4415 11.0338 33.6367V33.6358ZM13.9369 31.694C13.9369 31.694 12.3545 33.2428 12.029 33.495L13.9369 31.694Z" fill="#CFB66C"/>
<path fill-rule="evenodd" clip-rule="evenodd" d="M13.937 31.6941C13.7947 31.8589 13.642 32.0145 13.4801 32.16L13.0001 32.6163C12.8449 32.7715 12.6989 32.927 12.5341 33.0822C12.3642 33.2278 12.209 33.3703 12.0292 33.5047L12.4951 33.0483C12.6506 32.8931 12.8205 32.7623 12.9857 32.6067L13.4516 32.1504C13.6116 31.9904 13.7671 31.8349 13.937 31.6941V31.6941ZM14.0097 32.5338C13.8638 32.9409 13.6919 33.3382 13.4951 33.7232C13.0874 34.5389 12.4759 35.5581 12.2087 36.0778L14.0097 32.5338Z" fill="#CFB66C"/>
<path fill-rule="evenodd" clip-rule="evenodd" d="M14.0097 32.5341C14.0097 32.7136 13.961 32.8691 13.9028 33.0243C13.846 33.1796 13.7813 33.332 13.7089 33.4806C13.6359 33.6262 13.5533 33.7818 13.4708 33.9226C13.3882 34.0634 13.2913 34.2087 13.2183 34.3546L12.7281 35.2186C12.5581 35.5066 12.393 35.7962 12.2135 36.073C12.3348 35.7623 12.4999 35.4711 12.6554 35.1847C12.8253 34.8967 12.9805 34.6087 13.1354 34.3107C13.211 34.1623 13.2791 34.0101 13.3393 33.8547C13.4119 33.6992 13.4845 33.5536 13.5431 33.4128C13.6157 33.2576 13.674 33.1117 13.7469 32.9712C13.8292 32.8205 13.8973 32.6749 14.009 32.5341H14.0097Z" fill="#CFB66C"/>
<path fill-rule="evenodd" clip-rule="evenodd" d="M15.7379 36.5145C15.7379 36.5145 15.2579 37.1504 15.3059 37.9561C15.4367 37.534 15.6019 36.8883 15.7379 36.5145ZM16.1942 37.152C16.1942 37.152 16.0243 38.88 15.8835 39.7296C16.0825 38.7475 16.1212 38.83 16.1942 37.152ZM19.3737 39.8316C19.3737 39.8316 18.6553 41.9436 18.6406 42.5305C18.7961 41.927 19.0969 40.694 19.3737 39.83V39.8316Z" fill="#DEC270"/>
<path fill-rule="evenodd" clip-rule="evenodd" d="M21.0535 36.384C21.0535 36.384 22.2186 38.3063 23.0925 39.9469C22.856 39.1213 22.312 37.6071 21.0535 36.384Z" fill="#CBAF59"/>
<path fill-rule="evenodd" clip-rule="evenodd" d="M24.1846 39.2137C24.8243 40.3445 25.4012 41.5097 25.9126 42.704C25.8156 41.8787 25.5532 40.4662 24.1846 39.2137Z" fill="#E3C677"/>
<path fill-rule="evenodd" clip-rule="evenodd" d="M33.3885 42.048C33.5824 41.9268 33.9661 41.2663 34.3011 41.1015C34.6358 40.9316 34.8883 40.8976 35.1894 40.5626C35.4902 40.2128 35.5734 39.9994 36.2329 39.7229C37.1555 39.3245 36.5209 38.81 36.5209 38.81C36.6226 38.7102 36.7312 38.6178 36.8461 38.5335C37.0841 38.354 37.3606 38.1354 37.3366 37.7517C37.3027 37.1063 37.1814 36.1693 36.6521 35.6256C37.1667 35.5188 38.152 35.4461 38.7641 35.2909C39.4726 35.1111 39.7981 34.8586 39.7981 34.8586C39.7981 34.8586 39.3904 34.1645 40.0505 33.4656C40.7107 32.7668 41.2496 32.3492 41.6477 31.5674C41.1913 31.5092 40.4957 31.2666 38.7203 31.9412C38.8161 31.9863 38.9086 32.0381 38.9971 32.0964C38.9971 32.0964 37.9049 32.3975 37.5069 32.7325C36.8125 33.3197 36.7251 33.8004 35.9728 34.1597C35.2205 34.5191 34.463 34.4218 33.8371 34.713C33.2112 35.0042 33.1187 35.2519 32.8902 35.3588C32.9389 35.417 32.8806 35.514 32.9728 35.5965C32.9146 35.6791 32.5747 36.2324 32.2301 36.2324C32.264 36.3636 32.5552 36.4605 32.5552 36.4605C32.5552 36.4605 32.3418 36.616 31.7981 36.6548C32.0746 36.9428 32.337 37.2567 33.0601 37.713C33.0019 37.8343 32.759 38.0141 32.8563 38.2423C32.9632 38.4704 33.2403 38.7812 34.3465 39.0336C33.7833 39.0576 33.1235 39.1888 32.2346 39.0676C31.3462 38.9607 31.2006 38.8976 30.6522 39.0336C30.7104 39.0919 30.8656 39.0919 31.0016 39.2471C30.856 39.2567 29.9434 39.1402 29.6326 39.5482C29.3075 39.9703 29.1667 40.6647 29.191 41.1306C29.0211 41.2132 28.856 41.3588 28.9386 41.6599C29.0211 41.961 29.4531 42.058 29.7299 42.2471C30.0064 42.4509 30.0307 42.5236 30.2931 42.4752C30.5696 42.417 30.9773 42.1405 31.2154 42.1405C31.4534 42.1405 31.623 42.32 31.623 42.32C31.623 42.32 32.2688 42.0093 32.3318 42.0676C32.3901 42.1258 32.3414 42.4996 32.4045 42.5578C32.4685 42.6016 33.1958 42.1696 33.3901 42.048H33.3885Z" fill="#ECD592"/>
<path fill-rule="evenodd" clip-rule="evenodd" d="M47.5002 22.6215C44.4663 14.7866 36.9662 13.3351 36.9662 13.3351H15.5681L15.6506 21.3156H19.9121V39.136H15.5677V47.1021H36.3738C41.3882 47.1021 45.4078 42.0631 45.4078 42.0631C51.8446 32.9274 47.4999 22.6215 47.4999 22.6215H47.5002ZM36.4855 36.6941C36.4855 36.6941 34.8535 39.0487 33.0778 39.0487H29.5258L29.4417 21.3351H34.0001C34.0001 21.3351 36.1121 21.7767 37.5876 25.9562C37.5876 25.9562 39.5438 31.9402 36.4855 36.6941V36.6941Z" fill="white" fill-opacity="0.8"/>
</g>
<defs>
<clipPath id="clip0_865_486">
<rect width="60" height="60" fill="white" transform="translate(0.691895)"/>
</clipPath>
</defs>
</svg>
