<svg width="24" height="24" viewBox="0 0 24 24" fill="none" xmlns="http://www.w3.org/2000/svg">
<circle cx="12" cy="12" r="12" fill="#1D222A"/>
<path fill-rule="evenodd" clip-rule="evenodd" d="M16.6143 10.9277C16.223 10.5363 16.223 9.90178 16.6143 9.51041C17.0057 9.11905 17.6402 9.11905 18.0316 9.51041C18.423 9.90178 18.423 10.5363 18.0316 10.9277C17.6402 11.319 17.0057 11.319 16.6143 10.9277ZM13.2483 14.2937C12.9548 14.0001 12.9548 13.5242 13.2483 13.2307C13.5419 12.9372 14.0178 12.9372 14.3113 13.2307C14.6048 13.5242 14.6048 14.0001 14.3113 14.2937C14.0178 14.5872 13.5419 14.5872 13.2483 14.2937ZM18.5631 12.5221C18.2695 12.2286 18.2695 11.7527 18.5631 11.4591C18.8566 11.1656 19.3325 11.1656 19.626 11.4591C19.9195 11.7527 19.9195 12.2286 19.626 12.5221C19.3325 12.8156 18.8566 12.8156 18.5631 12.5221ZM16.7915 14.2937C16.498 14.0001 16.498 13.5242 16.7915 13.2307C17.085 12.9372 17.5609 12.9372 17.8544 13.2307C18.148 13.5242 18.148 14.0001 17.8544 14.2937C17.5609 14.5872 17.085 14.5872 16.7915 14.2937ZM20.5118 14.1165C20.3161 13.9208 20.3161 13.6036 20.5118 13.4079C20.7075 13.2122 21.0247 13.2122 21.2204 13.4079C21.4161 13.6036 21.4161 13.9208 21.2204 14.1165C21.0247 14.3122 20.7075 14.3122 20.5118 14.1165ZM18.7402 15.8881C18.5445 15.6924 18.5445 15.3751 18.7402 15.1795C18.9359 14.9838 19.2532 14.9838 19.4488 15.1795C19.6445 15.3751 19.6445 15.6924 19.4488 15.8881C19.2532 16.0838 18.9359 16.0838 18.7402 15.8881ZM14.8428 12.6992C14.4514 12.3079 14.4514 11.6734 14.8428 11.282C15.2341 10.8906 15.8686 10.8906 16.26 11.282C16.6514 11.6734 16.6514 12.3079 16.26 12.6992C15.8686 13.0906 15.2341 13.0906 14.8428 12.6992ZM14.8428 9.1561C14.4514 8.76473 14.4514 8.1302 14.8428 7.73884C15.2341 7.34747 15.8686 7.34747 16.26 7.73884C16.6514 8.1302 16.6514 8.76473 16.26 9.1561C15.8686 9.54746 15.2341 9.54746 14.8428 9.1561ZM13.0712 10.9277C12.6798 10.5363 12.6798 9.90178 13.0712 9.51041C13.4625 9.11905 14.0971 9.11905 14.4884 9.51041C14.8798 9.90178 14.8798 10.5363 14.4884 10.9277C14.0971 11.319 13.4625 11.319 13.0712 10.9277ZM9.51156 10.9277C9.1202 10.5363 9.1202 9.90178 9.51156 9.51041C9.90293 9.11905 10.5375 9.11905 10.9288 9.51041C11.3202 9.90178 11.3202 10.5363 10.9288 10.9277C10.5375 11.319 9.90293 11.319 9.51156 10.9277ZM6.14557 14.2937C5.85204 14.0001 5.85204 13.5242 6.14557 13.2307C6.43909 12.9372 6.91499 12.9372 7.20851 13.2307C7.50204 13.5242 7.50204 14.0001 7.20851 14.2937C6.91499 14.5872 6.43909 14.5872 6.14557 14.2937ZM11.4603 12.5221C11.1668 12.2286 11.1668 11.7527 11.4603 11.4591C11.7538 11.1656 12.2297 11.1656 12.5232 11.4591C12.8168 11.7527 12.8168 12.2286 12.5232 12.5221C12.2297 12.8156 11.7538 12.8156 11.4603 12.5221ZM9.68872 14.2937C9.39519 14.0001 9.39519 13.5242 9.68872 13.2307C9.98224 12.9372 10.4581 12.9372 10.7517 13.2307C11.0452 13.5242 11.0452 14.0001 10.7517 14.2937C10.4581 14.5872 9.98224 14.5872 9.68872 14.2937ZM2.77957 14.1165C2.58389 13.9208 2.58389 13.6036 2.77957 13.4079C2.97526 13.2122 3.29252 13.2122 3.4882 13.4079C3.68389 13.6036 3.68389 13.9208 3.4882 14.1165C3.29252 14.3122 2.97526 14.3122 2.77957 14.1165ZM4.55115 15.8881C4.35547 15.6924 4.35547 15.3751 4.55115 15.1795C4.74683 14.9838 5.0641 14.9838 5.25978 15.1795C5.45546 15.3751 5.45546 15.6924 5.25978 15.8881C5.0641 16.0838 4.74683 16.0838 4.55115 15.8881ZM11.6375 15.8881C11.4418 15.6924 11.4418 15.3751 11.6375 15.1795C11.8331 14.9838 12.1504 14.9838 12.3461 15.1795C12.5418 15.3751 12.5418 15.6924 12.3461 15.8881C12.1504 16.0838 11.8331 16.0838 11.6375 15.8881ZM4.37399 12.5221C4.08047 12.2286 4.08047 11.7527 4.37399 11.4591C4.66752 11.1656 5.14341 11.1656 5.43694 11.4591C5.73046 11.7527 5.73046 12.2286 5.43694 12.5221C5.14341 12.8156 4.66752 12.8156 4.37399 12.5221ZM7.73999 12.6992C7.34862 12.3079 7.34862 11.6734 7.73999 11.282C8.13135 10.8906 8.76588 10.8906 9.15725 11.282C9.54861 11.6734 9.54861 12.3079 9.15725 12.6992C8.76588 13.0906 8.13135 13.0906 7.73999 12.6992ZM7.73999 9.1561C7.34862 8.76473 7.34862 8.1302 7.73999 7.73884C8.13135 7.34747 8.76588 7.34747 9.15725 7.73884C9.54861 8.1302 9.54861 8.76473 9.15725 9.1561C8.76588 9.54746 8.13135 9.54746 7.73999 9.1561ZM5.96841 10.9277C5.57704 10.5363 5.57704 9.90178 5.96841 9.51041C6.35978 9.11905 6.99431 9.11905 7.38567 9.51041C7.77704 9.90178 7.77704 10.5363 7.38567 10.9277C6.99431 11.319 6.35978 11.319 5.96841 10.9277Z" fill="white"/>
</svg>
