<svg width="24" height="24" viewBox="0 0 24 24" fill="none" xmlns="http://www.w3.org/2000/svg">
<path d="M11.9631 24C18.4885 24 23.7785 18.6274 23.7785 12C23.7785 5.37259 18.4885 0 11.9631 0C5.43764 0 0.147705 5.37259 0.147705 12C0.147705 18.6274 5.43764 24 11.9631 24Z" fill="#1E6BBC"/>
<path fill-rule="evenodd" clip-rule="evenodd" d="M11.7234 4.86869C11.91 4.71044 12.1837 4.71044 12.3703 4.86869C14.4457 6.62911 16.8107 6.6145 17.701 6.609C17.7461 6.60872 17.7874 6.60846 17.8247 6.60846C17.9586 6.60846 18.0869 6.66217 18.1808 6.75755C18.2748 6.85292 18.3266 6.98201 18.3246 7.11589C18.2827 9.93595 18.1714 11.9358 17.9555 13.3941C17.7398 14.8516 17.4132 15.8167 16.9067 16.5316C16.3971 17.251 15.7402 17.6649 14.9998 18.0805C14.8729 18.1517 14.7429 18.2234 14.6092 18.297C13.9556 18.657 13.2158 19.0645 12.3413 19.7016C12.1658 19.8295 11.9279 19.8295 11.7524 19.7016C10.8787 19.0651 10.1399 18.6578 9.4873 18.298C9.353 18.224 9.22235 18.152 9.09493 18.0804C8.35511 17.6647 7.69917 17.2507 7.19061 16.5312C6.68524 15.8162 6.3598 14.8511 6.14482 13.3939C5.9297 11.9357 5.81893 9.93589 5.77703 7.11589C5.77504 6.98201 5.82683 6.85292 5.92081 6.75755C6.01478 6.66217 6.14308 6.60846 6.27698 6.60846C6.31385 6.60846 6.35475 6.60872 6.39944 6.609C7.28261 6.6145 9.64779 6.62924 11.7234 4.86869ZM6.7854 7.60907C6.83261 10.1498 6.94168 11.9435 7.13412 13.2479C7.33928 14.6386 7.63297 15.4245 8.00721 15.954C8.37827 16.479 8.86246 16.8027 9.58478 17.2086C9.70379 17.2755 9.82865 17.3442 9.95924 17.4162C10.5436 17.7381 11.2427 18.1232 12.0468 18.6836C12.852 18.1225 13.5521 17.7372 14.1374 17.415C14.2674 17.3435 14.3918 17.275 14.5103 17.2085C15.2335 16.8026 15.7187 16.4787 16.0908 15.9536C16.4659 15.4241 16.7605 14.6382 16.9663 13.2477C17.1594 11.9433 17.269 10.1497 17.3162 7.60911C16.2303 7.59536 14.0558 7.42669 12.0468 5.89178C10.0398 7.42516 7.86794 7.59502 6.7854 7.60907Z" fill="white"/>
</svg>
