<svg width="60" height="60" viewBox="0 0 60 60" fill="none" xmlns="http://www.w3.org/2000/svg">
<path d="M60 30C60 46.5 46.5 60 30 60C13.5 60 0 46.5 0 30C0 13.5 13.5 0 30 0C46.5 0 60 13.5 60 30ZM30 31.25C30 31.25 26.75 30.75 23.5 34.5C20.5 37.75 14.25 44 14.25 44H19.25C19.25 44 22.5 40.25 23.75 39.25C24.5 38.5 25 37.75 25.5 37.25C26.75 36 27.75 35 30.25 34.75C32.75 34.75 33.75 35.75 35 37.25C35.5 38 36 38.5 36.75 39.25C38 40.25 41.25 44 41.25 44H46C46 44 39.5 37.5 36.75 34.5C33.25 30.75 30 31.25 30 31.25ZM30 28.75C30.25 28.75 33.5 29.25 36.75 25.5C39.5 22.5 46 16 46 16H41.25C41.25 16 38 19.75 36.75 20.75C36 21.5 35.5 22 35 22.75C33.75 24.25 32.75 25.25 30.25 25.25C27.75 25.25 26.75 24 25.5 22.75C24.75 22.25 24.25 21.75 23.5 21C22.25 20 19 16.25 19 16.25H14.25C14.25 16.25 20.5 22.5 23.5 25.75C26.75 29.25 30 28.75 30 28.75Z" fill="black"/>
</svg>
